<?xml version="1.0" encoding="UTF-8"?>
<svg version="1.1" xmlns="http://www.w3.org/2000/svg" width="1024" height="1024">
<path d="M0 0 C337.92 0 675.84 0 1024 0 C1024 337.92 1024 675.84 1024 1024 C686.08 1024 348.16 1024 0 1024 C0 686.08 0 348.16 0 0 Z " fill="#0043A2" transform="translate(0,0)"/>
<path d="M0 0 C0.66 0 1.32 0 2 0 C0.94363703 5.43716236 -0.18368151 10.85314732 -1.38916016 16.25927734 C-1.78001461 18.01296722 -2.16324287 19.76838521 -2.53662109 21.52587891 C-6.20818915 38.34306121 -14.24327519 52.33947613 -23 67 C-23.69216346 68.16487931 -24.38405791 69.3299185 -25.07568359 70.49511719 C-28.27618098 75.88041552 -31.50195578 81.2495431 -34.7578125 86.6015625 C-37.62761786 91.33632056 -40.35775874 96.13494489 -43 101 C-42.08822998 100.97905273 -41.17645996 100.95810547 -40.23706055 100.93652344 C-36.8020586 100.86769707 -33.36780612 100.81788904 -29.93237305 100.78027344 C-28.45536622 100.76035513 -26.97843616 100.73320993 -25.50170898 100.69824219 C-11.67778661 100.37948101 -1.9375681 103.23260887 9.6875 110.8125 C10.47705078 111.30814453 11.26660156 111.80378906 12.08007812 112.31445312 C19.20723371 116.87982814 26.45381133 121.52387778 29.9375 129.5 C32.47866804 134.575393 35.29464039 137.21165792 39.88671875 140.453125 C44.6709163 143.95505149 47.72579564 148.54190954 50 154 C50.061875 154.969375 50.12375 155.93875 50.1875 156.9375 C51.29003363 161.0932037 53.54646767 162.49361874 56.8046875 165.15625 C63.93226943 171.14240422 68.48713496 177.94853985 70.75 187 C72.43074789 191.03379492 75.1429585 193.64356487 78.09375 196.82421875 C83.2718502 202.73446836 84.4488236 209.15546101 84.328125 216.76953125 C83.03547253 229.49600261 76.23424454 240.71317613 70.22265625 251.72021484 C68.45295513 255.02002896 66.82381049 258.38273438 65.1875 261.75 C60.43080105 271.41323453 55.03194574 280.72085004 49.68017578 290.06298828 C48.03863589 292.93246298 46.40656789 295.8071119 44.77734375 298.68359375 C26.90611063 330.19295833 26.90611063 330.19295833 20.25 334.9375 C19.63640625 335.37964844 19.0228125 335.82179688 18.390625 336.27734375 C17.01149513 337.27112851 15.61921997 338.24815341 14.19506836 339.17626953 C8.29915566 343.21954629 4.84657393 348.00033273 1.0625 354 C0.4547876 354.9377124 -0.1529248 355.8754248 -0.77905273 356.84155273 C-2.53260455 359.55281541 -4.2678739 362.2750188 -6 365 C-6.81367963 366.2626379 -7.62858191 367.5244897 -8.4453125 368.78515625 C-9.85859289 370.97287258 -11.26613978 373.1643033 -12.66796875 375.359375 C-16.09722701 380.72638352 -19.58193853 386.05754932 -23.05615234 391.39550781 C-26.1538532 396.15633706 -29.24306807 400.92242657 -32.32177734 405.69555664 C-36.65739183 412.41599161 -41.03705013 419.10281525 -45.50366211 425.73706055 C-48.01586624 429.4788667 -50.40352499 433.27595766 -52.75 437.125 C-56.22530222 442.58966915 -59.20488689 445.83976437 -65.3125 448.375 C-69.76304351 449.12932941 -73.57872102 448.74189262 -78 448 C-73.54565647 438.6685004 -67.15254292 430.17216149 -61.40963745 421.60543823 C-55.60332135 412.94111701 -49.82646748 404.26022515 -44.18359375 395.48828125 C-39.35148648 387.97813863 -34.45647576 380.50926345 -29.56518555 373.03759766 C-25.9525834 367.51822132 -22.34448835 361.99604644 -18.75 356.46484375 C-17.73921387 354.91047607 -17.73921387 354.91047607 -16.70800781 353.32470703 C-15.44045102 351.3746926 -14.17409568 349.42389644 -12.90917969 347.47216797 C-11.28428412 344.97362843 -9.6461028 342.48460375 -8 340 C-7.56421631 339.3296875 -7.12843262 338.659375 -6.67944336 337.96875 C-3.94607944 333.91562534 -1.04014332 331.19057764 2.9375 328.375 C4.96486516 326.9257609 6.98568001 325.46731675 9 324 C9.99128906 323.28714844 10.98257813 322.57429688 12.00390625 321.83984375 C16.07696681 318.3790993 18.40594471 313.78911089 21 309.1875 C21.556875 308.22191162 22.11375 307.25632324 22.6875 306.26147461 C23.86760725 304.21489073 25.04329612 302.16575357 26.21484375 300.11425781 C28.53030627 296.07486505 30.88970222 292.06201741 33.24853516 288.04785156 C42.99628958 271.43291693 52.59716848 254.73988697 61.5625 237.6875 C62.05121582 236.76316162 62.53993164 235.83882324 63.04345703 234.88647461 C70.18447934 222.12396781 70.18447934 222.12396781 71 208 C69.5685046 205.31532696 67.99107271 203.33951043 66 201 C65.75765625 201.556875 65.5153125 202.11375 65.265625 202.6875 C58.96385542 217.03614458 58.96385542 217.03614458 57 219 C53.5625 219.1875 53.5625 219.1875 50 219 C49.34 218.34 48.68 217.68 48 217 C48.23190537 208.84332821 51.06235831 202.4524412 54.38085938 195.109375 C56.55859326 190.30871038 56.55859326 190.30871038 56.49609375 185.19140625 C54.77518134 182.67069643 52.94889286 180.42864229 50.875 178.1875 C49.78832031 177.00220703 49.78832031 177.00220703 48.6796875 175.79296875 C48.12539063 175.20128906 47.57109375 174.60960937 47 174 C46.46890625 175.08539063 45.9378125 176.17078125 45.390625 177.2890625 C44.6773009 178.73448239 43.96374699 180.17978889 43.25 181.625 C42.72792969 182.69427734 42.72792969 182.69427734 42.1953125 183.78515625 C37.26704545 193.73295455 37.26704545 193.73295455 34 197 C30.94239943 197.26587831 28.79159195 197.43409881 26.0625 195.9375 C24.38711423 192.88238478 25.13139562 190.22758016 26 187 C28.17842478 181.58840828 30.72044167 176.33817562 33.2265625 171.07226562 C33.7215625 169.99525391 34.2165625 168.91824219 34.7265625 167.80859375 C35.18627441 166.83720459 35.64598633 165.86581543 36.11962891 164.86499023 C37.17029784 161.4458 36.96808791 159.42281851 36 156 C33.64573501 153.22877725 33.64573501 153.22877725 31 151 C30.34 150.34 29.68 149.68 29 149 C28.01 149 27.02 149 26 149 C24.6231486 151.58236128 23.24828699 154.16574342 21.875 156.75 C21.46556152 157.51900635 21.05612305 158.2880127 20.63427734 159.08032227 C17.71503996 164.58584123 14.94196161 170.13799389 12.2890625 175.77734375 C11 178 11 178 8 180 C4.94396162 180.31833733 2.86664781 180.46221217 0.125 179 C-1.67011525 175.80868401 -1.45703151 172.53564654 -1 169 C0.00330552 166.29664901 1.41893062 163.94401074 2.9375 161.5 C3.53461792 160.48220459 3.53461792 160.48220459 4.14379883 159.44384766 C5.84586386 156.54497129 7.58926422 153.67230332 9.34179688 150.80371094 C10.63974833 148.67000072 11.91370775 146.52318997 13.1875 144.375 C13.59798584 143.72466797 14.00847168 143.07433594 14.43139648 142.40429688 C16.25436347 139.31970701 17.11215611 137.5976927 16.44067383 134.01928711 C14.65228749 130.27128273 12.98077457 129.22939414 9.40625 127.16796875 C8.29378906 126.51505859 7.18132812 125.86214844 6.03515625 125.18945312 C4.85696632 124.52179034 3.67857861 123.85447644 2.5 123.1875 C1.32066587 122.50228128 0.14226865 121.81544735 -1.03515625 121.12695312 C-9.48081645 116.12502856 -9.48081645 116.12502856 -18.984375 114.71875 C-19.6775885 114.70034058 -20.370802 114.68193115 -21.08502197 114.66296387 C-23.3065944 114.60417791 -25.52824596 114.55143394 -27.75 114.5 C-29.95746453 114.4484057 -32.16483315 114.39533628 -34.37213135 114.33703613 C-36.38568157 114.28385658 -38.3993832 114.23650459 -40.41308594 114.18945312 C-43.68698107 114.01653299 -46.78292252 113.61336792 -50 113 C-52.94189974 116.66517023 -52.94189974 116.66517023 -54.125 121.0625 C-52.05107722 124.63425589 -48.66459036 127.16770482 -45 129 C-43.19400416 129.02560399 -41.38695028 128.98928287 -39.58203125 128.921875 C-37.94717773 128.88320313 -37.94717773 128.88320313 -36.27929688 128.84375 C-33.98713688 128.78176483 -31.69534546 128.70390537 -29.40429688 128.609375 C-20.00799138 128.43260735 -20.00799138 128.43260735 -15.76171875 131.265625 C-12.25875979 134.7339012 -12.25875979 134.7339012 -12 138 C-12.97973633 140.40356445 -12.97973633 140.40356445 -14.51953125 143.05078125 C-15.07979004 144.0248291 -15.64004883 144.99887695 -16.21728516 146.00244141 C-16.80558105 146.99163574 -17.39387695 147.98083008 -18 149 C-18.79156494 150.34650635 -18.79156494 150.34650635 -19.59912109 151.72021484 C-21.27910238 154.55265201 -22.98073925 157.37112376 -24.6875 160.1875 C-26.00604096 162.37189346 -27.32370386 164.5568171 -28.640625 166.7421875 C-28.98596786 167.31514053 -29.33131073 167.88809357 -29.68711853 168.47840881 C-32.45558398 173.07855027 -35.19281356 177.69670696 -37.921875 182.3203125 C-38.3386702 183.02567642 -38.75546539 183.73104034 -39.18489075 184.45777893 C-41.6618224 188.64960245 -41.6618224 188.64960245 -44.13217163 192.8453064 C-59.07155906 218.26179848 -59.07155906 218.26179848 -64 220 C-67.69835334 220.40345673 -70.06681909 220.52569191 -73.34375 218.6796875 C-77.35461371 214.63343382 -79.53597874 209.81575457 -82.0625 204.75 C-82.57876953 203.73808594 -83.09503906 202.72617187 -83.62695312 201.68359375 C-84.6352294 199.7030052 -85.63500559 197.71806233 -86.62548828 195.72851562 C-87.47778783 194.03663289 -88.35237596 192.35554625 -89.26123047 190.69335938 C-91.47350656 186.60167056 -92.74296234 183.65131885 -92 179 C-90.93474719 176.77214751 -89.77792384 174.58711279 -88.5625 172.4375 C-85.21206433 165.9698763 -84.20283388 159.99655956 -83.875 152.75 C-83.82931885 151.83275146 -83.7836377 150.91550293 -83.73657227 149.97045898 C-83.36948788 145.25664674 -83.36948788 145.25664674 -85.52001953 141.35253906 C-86.00841309 140.90620117 -86.49680664 140.45986328 -87 140 C-87 139.34 -87 138.68 -87 138 C-90.61066509 139.01270455 -90.61066509 139.01270455 -92.93310547 141.72412109 C-93.46121826 142.85068115 -93.46121826 142.85068115 -94 144 C-95.21607456 145.89816878 -96.44997794 147.78496061 -97.6953125 149.6640625 C-98.79815901 151.38871231 -99.89340293 153.11798879 -100.98681641 154.84863281 C-101.73531505 156.01681731 -102.4974131 157.17641829 -103.27392578 158.32617188 C-109.97763513 168.29387034 -111.8551199 177.05826266 -110 189 C-108.73908564 195.06047554 -106.68308742 200.82214313 -104.5625 206.625 C-104.0085466 208.20455398 -103.45681848 209.78488999 -102.90722656 211.3659668 C-101.31156487 215.92556352 -99.66521192 220.46540555 -98 225 C-97.56349121 226.19157715 -97.12698242 227.3831543 -96.67724609 228.61083984 C-94.84639992 233.57451706 -92.98048473 238.52366992 -91.08984375 243.46484375 C-87.49777108 252.8946625 -84.25273193 262.44898459 -81 272 C-80.69900391 272.88107422 -80.39800781 273.76214844 -80.08789062 274.66992188 C-79.24138299 277.15338468 -78.40043674 279.63863367 -77.5625 282.125 C-77.19185425 283.21723877 -77.19185425 283.21723877 -76.8137207 284.33154297 C-72.76314191 296.4645066 -73.56461361 304.83249363 -79.109375 316.29296875 C-83.79229344 324.69042436 -90.15691984 332.08872796 -96.10791016 339.60351562 C-99.15833492 343.46712459 -102.17081661 347.36003325 -105.1875 351.25 C-110.66088465 358.2914272 -116.16039816 365.31183066 -121.67773438 372.31884766 C-123.02154921 374.02739805 -124.36270038 375.73800761 -125.703125 377.44921875 C-127.97610761 380.35074318 -130.25577397 383.24692357 -132.53808594 386.14111328 C-133.56739898 387.44992916 -134.59383072 388.7610136 -135.61816406 390.07373047 C-137.26074457 392.17855675 -138.91099006 394.27717641 -140.5625 396.375 C-141.07546631 397.0362085 -141.58843262 397.69741699 -142.11694336 398.37866211 C-143.36524872 399.95665297 -144.67716551 401.4839425 -146 403 C-146.66 403 -147.32 403 -148 403 C-148.68620031 401.67661368 -149.34786461 400.34050052 -150 399 C-150.556875 397.88625 -150.556875 397.88625 -151.125 396.75 C-152.2882767 393.0939875 -152.68283333 389.76515577 -152 386 C-150.46664135 383.45527713 -149.11579177 381.56127769 -147.1875 379.375 C-146.16619031 378.14883411 -145.14537 376.92226047 -144.125 375.6953125 C-143.60164063 375.07946289 -143.07828125 374.46361328 -142.5390625 373.82910156 C-140.18113883 371.02682299 -137.93701917 368.1394362 -135.6875 365.25 C-134.77502965 364.08831377 -133.8622609 362.92686187 -132.94921875 361.765625 C-129.01672873 356.7511304 -125.11006572 351.71654139 -121.20092773 346.68383789 C-118.0161405 342.58561504 -114.82347538 338.49400362 -111.61157227 334.41699219 C-110.27298346 332.71669398 -108.93915687 331.01273701 -107.60546875 329.30859375 C-105.83797486 327.05342344 -104.0459294 324.82073851 -102.23828125 322.59765625 C-93.8206993 312.14913199 -89.62566905 303.74145481 -91 290 C-92.30686527 284.98341463 -94.17940324 280.23341545 -96.125 275.4375 C-96.65997072 274.07088588 -97.19279874 272.70343131 -97.72363281 271.33520508 C-98.85662325 268.42618067 -100.00241763 265.52269996 -101.15917969 262.62304688 C-104.08051488 255.29911401 -106.93996481 247.95094858 -109.80413818 240.60452271 C-110.73955672 238.2141864 -111.6835947 235.82740708 -112.62939453 233.44116211 C-113.20615226 231.97513604 -113.7828172 230.50907346 -114.359375 229.04296875 C-114.62755035 228.37255554 -114.89572571 227.70214233 -115.17202759 227.01141357 C-116.28281109 224.17257512 -117 222.08013118 -117 219 C-117.66 219 -118.32 219 -119 219 C-119.26941406 219.73734375 -119.53882813 220.4746875 -119.81640625 221.234375 C-123.17117989 229.07325202 -129.35840859 234.41516113 -135.93359375 239.58203125 C-139.42064068 242.33168991 -142.80656732 245.18430134 -146.1875 248.0625 C-147.0530249 248.79702393 -147.0530249 248.79702393 -147.93603516 249.54638672 C-149.2914493 250.69669718 -150.64584144 251.84821172 -152 253 C-153.53456421 249.93087157 -152.35731836 247.1433247 -151.62890625 243.9296875 C-151.47184204 243.22082901 -151.31477783 242.51197052 -151.1529541 241.78163147 C-150.63486498 239.47646538 -150.10147361 237.17536926 -149.5625 234.875 C-149.38049042 234.09512726 -149.19848083 233.31525452 -149.01095581 232.51174927 C-146.31482827 221.10491975 -143.12731033 211.05335864 -137 201 C-131.30972188 191.30769138 -127.49398469 183.75514978 -126.4765625 172.45703125 C-125.66657733 166.58131918 -123.01770419 162.01057643 -120 157 C-119.52530273 156.1965918 -119.05060547 155.39318359 -118.56152344 154.56542969 C-116.91132561 151.78355257 -115.24164492 149.01449555 -113.5625 146.25 C-113.02520264 145.36231934 -112.48790527 144.47463867 -111.93432617 143.56005859 C-102.76982435 128.79341449 -102.76982435 128.79341449 -95.3125 125.125 C-94.58675781 124.75632812 -93.86101562 124.38765625 -93.11328125 124.0078125 C-91 123 -91 123 -89.078125 122.26342773 C-86.26989842 120.55612363 -85.27341782 118.61865333 -83.63671875 115.77734375 C-83.00499756 114.69437012 -82.37327637 113.61139648 -81.72241211 112.49560547 C-81.04407763 111.30958773 -80.36577442 110.12355209 -79.6875 108.9375 C-78.9758923 107.71170403 -78.26306479 106.48661545 -77.54907227 105.26220703 C-76.07927255 102.74082272 -74.61362458 100.21709399 -73.15039062 97.69189453 C-69.97087161 92.21817274 -66.7045906 86.79675894 -63.4375 81.375 C-62.20548641 79.32696893 -60.97371629 77.27879138 -59.7421875 75.23046875 C-59.13084961 74.21388184 -58.51951172 73.19729492 -57.88964844 72.14990234 C-55.92246048 68.87074742 -53.9642335 65.58637014 -52.0078125 62.30078125 C-51.34724854 61.1936377 -50.68668457 60.08649414 -50.00610352 58.94580078 C-48.75938255 56.85576964 -47.51487943 54.76441301 -46.27319336 52.67138672 C-44.5379872 49.76645808 -42.77657132 46.87980018 -41 44 C-40.40106934 43.01636475 -39.80213867 42.03272949 -39.18505859 41.01928711 C-34.14039686 33.05590056 -28.21800665 26.70881315 -21.5 20.1875 C-20.49521132 19.19425127 -19.49130182 18.20011234 -18.48828125 17.20507812 C-3.0960705 2 -3.0960705 2 0 2 C0 1.34 0 0.68 0 0 Z " fill="#54BAF2" transform="translate(403,294)"/>
<path d="M0 0 C0.79857422 0.50015625 1.59714844 1.0003125 2.41992188 1.515625 C16.88424724 10.75770413 16.88424724 10.75770413 20.375 18.75 C22.91616804 23.825393 25.73214039 26.46165792 30.32421875 29.703125 C35.1084163 33.20505149 38.16329564 37.79190954 40.4375 43.25 C40.499375 44.219375 40.56125 45.18875 40.625 46.1875 C41.72753363 50.3432037 43.98396767 51.74361874 47.2421875 54.40625 C54.36976943 60.39240422 58.92463496 67.19853985 61.1875 76.25 C62.86824789 80.28379492 65.5804585 82.89356487 68.53125 86.07421875 C73.7093502 91.98446836 74.8863236 98.40546101 74.765625 106.01953125 C73.47297253 118.74600261 66.67174454 129.96317613 60.66015625 140.97021484 C58.89045513 144.27002896 57.26131049 147.63273438 55.625 151 C50.86830105 160.66323453 45.46944574 169.97085004 40.11767578 179.31298828 C38.47613589 182.18246298 36.84406789 185.0571119 35.21484375 187.93359375 C17.34361063 219.44295833 17.34361063 219.44295833 10.6875 224.1875 C10.07390625 224.62964844 9.4603125 225.07179688 8.828125 225.52734375 C7.44899513 226.52112851 6.05671997 227.49815341 4.63256836 228.42626953 C-1.26334434 232.46954629 -4.71592607 237.25033273 -8.5 243.25 C-9.4115686 244.6565686 -9.4115686 244.6565686 -10.34155273 246.09155273 C-12.09510455 248.80281541 -13.8303739 251.5250188 -15.5625 254.25 C-16.37617963 255.5126379 -17.19108191 256.7744897 -18.0078125 258.03515625 C-19.42109289 260.22287258 -20.82863978 262.4143033 -22.23046875 264.609375 C-25.65972701 269.97638352 -29.14443853 275.30754932 -32.61865234 280.64550781 C-35.7163532 285.40633706 -38.80556807 290.17242657 -41.88427734 294.94555664 C-46.21989183 301.66599161 -50.59955013 308.35281525 -55.06616211 314.98706055 C-57.57836624 318.7288667 -59.96602499 322.52595766 -62.3125 326.375 C-65.78780222 331.83966915 -68.76738689 335.08976437 -74.875 337.625 C-79.32554351 338.37932941 -83.14122102 337.99189262 -87.5625 337.25 C-83.10815647 327.9185004 -76.71504292 319.42216149 -70.97213745 310.85543823 C-65.16582135 302.19111701 -59.38896748 293.51022515 -53.74609375 284.73828125 C-48.91398648 277.22813863 -44.01897576 269.75926345 -39.12768555 262.28759766 C-35.5150834 256.76822132 -31.90698835 251.24604644 -28.3125 245.71484375 C-27.63864258 244.67859863 -26.96478516 243.64235352 -26.27050781 242.57470703 C-25.00295102 240.6246926 -23.73659568 238.67389644 -22.47167969 236.72216797 C-20.84678412 234.22362843 -19.2086028 231.73460375 -17.5625 229.25 C-17.12671631 228.5796875 -16.69093262 227.909375 -16.24194336 227.21875 C-13.50857944 223.16562534 -10.60264332 220.44057764 -6.625 217.625 C-4.59763484 216.1757609 -2.57681999 214.71731675 -0.5625 213.25 C0.42878906 212.53714844 1.42007813 211.82429687 2.44140625 211.08984375 C6.51446681 207.6290993 8.84344471 203.03911089 11.4375 198.4375 C11.994375 197.47191162 12.55125 196.50632324 13.125 195.51147461 C14.30510725 193.46489073 15.48079612 191.41575357 16.65234375 189.36425781 C18.96780627 185.32486505 21.32720222 181.31201741 23.68603516 177.29785156 C33.43378958 160.68291693 43.03466848 143.98988697 52 126.9375 C52.48871582 126.01316162 52.97743164 125.08882324 53.48095703 124.13647461 C60.62197934 111.37396781 60.62197934 111.37396781 61.4375 97.25 C60.0060046 94.56532696 58.42857271 92.58951043 56.4375 90.25 C56.07398438 91.0853125 56.07398438 91.0853125 55.703125 91.9375 C49.40135542 106.28614458 49.40135542 106.28614458 47.4375 108.25 C44 108.4375 44 108.4375 40.4375 108.25 C39.7775 107.59 39.1175 106.93 38.4375 106.25 C38.66940537 98.09332821 41.49985831 91.7024412 44.81835938 84.359375 C46.99609326 79.55871038 46.99609326 79.55871038 46.93359375 74.44140625 C45.21268134 71.92069643 43.38639286 69.67864229 41.3125 67.4375 C40.22582031 66.25220703 40.22582031 66.25220703 39.1171875 65.04296875 C38.56289063 64.45128906 38.00859375 63.85960937 37.4375 63.25 C36.90640625 64.33539063 36.3753125 65.42078125 35.828125 66.5390625 C35.1148009 67.98448239 34.40124699 69.42978889 33.6875 70.875 C33.33945312 71.58785156 32.99140625 72.30070312 32.6328125 73.03515625 C27.70454545 82.98295455 27.70454545 82.98295455 24.4375 86.25 C21.37989943 86.51587831 19.22909195 86.68409881 16.5 85.1875 C14.82461423 82.13238478 15.56889562 79.47758016 16.4375 76.25 C18.61592478 70.83840828 21.15794167 65.58817562 23.6640625 60.32226562 C24.1590625 59.24525391 24.6540625 58.16824219 25.1640625 57.05859375 C25.62377441 56.08720459 26.08348633 55.11581543 26.55712891 54.11499023 C27.60779784 50.6958 27.40558791 48.67281851 26.4375 45.25 C24.08323501 42.47877725 24.08323501 42.47877725 21.4375 40.25 C20.7775 39.59 20.1175 38.93 19.4375 38.25 C18.4475 38.25 17.4575 38.25 16.4375 38.25 C15.0606486 40.83236128 13.68578699 43.41574342 12.3125 46 C11.90306152 46.76900635 11.49362305 47.5380127 11.07177734 48.33032227 C8.15253996 53.83584123 5.37946161 59.38799389 2.7265625 65.02734375 C1.4375 67.25 1.4375 67.25 -1.5625 69.25 C-4.61853838 69.56833733 -6.69585219 69.71221217 -9.4375 68.25 C-11.23261525 65.05868401 -11.01953151 61.78564654 -10.5625 58.25 C-9.55919448 55.54664901 -8.14356938 53.19401074 -6.625 50.75 C-6.22692139 50.07146973 -5.82884277 49.39293945 -5.41870117 48.69384766 C-3.71663614 45.79497129 -1.97323578 42.92230332 -0.22070312 40.05371094 C1.07724833 37.92000072 2.35120775 35.77318997 3.625 33.625 C4.03548584 32.97466797 4.44597168 32.32433594 4.86889648 31.65429688 C6.69253307 28.568574 7.54940979 26.84681962 6.87817383 23.26708984 C5.0888079 19.51976158 3.42709189 18.4973663 -0.15625 16.453125 C-1.26871094 15.80472656 -2.38117188 15.15632813 -3.52734375 14.48828125 C-4.70533583 13.82482197 -5.88372594 13.16206893 -7.0625 12.5 C-9.36778082 11.17736017 -11.66791492 9.84600357 -13.96875 8.515625 C-14.99291016 7.93586914 -16.01707031 7.35611328 -17.07226562 6.75878906 C-19.5625 5.25 -19.5625 5.25 -21.5625 3.25 C-24.3436439 2.91039 -24.3436439 2.91039 -27.6015625 2.90625 C-29.43267578 2.86177734 -29.43267578 2.86177734 -31.30078125 2.81640625 C-32.58339844 2.79449219 -33.86601562 2.77257812 -35.1875 2.75 C-44.23072459 2.59264604 -51.96753913 2.11498696 -60.5625 -0.75 C-60.05646008 -2.91874252 -59.56266187 -4.74967627 -58.5625 -6.75 C-51.60250286 -8.09908403 -44.49749476 -8.17103719 -37.4296875 -8.41748047 C-35.93819073 -8.47237223 -34.44694274 -8.53451613 -32.95605469 -8.60400391 C-19.63936141 -9.22372651 -11.24978197 -7.29912861 0 0 Z " fill="#51B7F2" transform="translate(412.5625,404.75)"/>
<path d="M0 0 C2.784375 -0.020625 5.56875 -0.04125 8.4375 -0.0625 C9.75512329 -0.07615601 9.75512329 -0.07615601 11.09936523 -0.09008789 C13.06645974 -0.09723091 15.03353621 -0.05031893 17 0 C18.79988399 1.79988399 18.11993004 4.24999876 18.12442017 6.64555359 C18.11902725 7.86043205 18.11902725 7.86043205 18.11352539 9.09985352 C18.11367142 9.94856018 18.11381744 10.79726685 18.1139679 11.67169189 C18.11326848 14.49078891 18.10547478 17.30982071 18.09765625 20.12890625 C18.09579217 22.07803817 18.09436822 24.02717055 18.09336853 25.9763031 C18.08954255 31.11706832 18.07971159 36.25780547 18.06866455 41.39855957 C18.05845215 46.64005148 18.05387128 51.8815479 18.04882812 57.12304688 C18.03808939 67.41537892 18.02049195 77.70768274 18 88 C12.06 88 6.12 88 0 88 C-0.33 86.68 -0.66 85.36 -1 84 C-1.70125 84.61875 -2.4025 85.2375 -3.125 85.875 C-9.99593711 90.95351873 -17.77768639 90.74832292 -26 90 C-29.32504013 89.0980463 -32.06434914 87.78487572 -35 86 C-35.62390625 85.649375 -36.2478125 85.29875 -36.890625 84.9375 C-44.43185388 80.21603496 -48.59967774 72.53229098 -50.58984375 64.0234375 C-51.9442757 54.03933911 -50.42539785 45.47009873 -45 37 C-44.4225 36.0925 -43.845 35.185 -43.25 34.25 C-36.43671038 27.43671038 -28.22900273 22.9792755 -18.5625 22.5625 C-11.73078015 22.74303224 -6.59848169 25.26767887 -1 29 C-0.67 19.43 -0.34 9.86 0 0 Z " fill="#E0FBFD" transform="translate(734,455)"/>
<path d="M0 0 C0.66 0.66 1.32 1.32 2 2 C2.33 0.68 2.66 -0.64 3 -2 C8.61 -2 14.22 -2 20 -2 C20 18.79 20 39.58 20 61 C14.39 61 8.78 61 3 61 C2.505 59.02 2.505 59.02 2 57 C1.45730469 57.34933594 0.91460938 57.69867187 0.35546875 58.05859375 C-0.35996094 58.51363281 -1.07539062 58.96867188 -1.8125 59.4375 C-2.87404297 60.11619141 -2.87404297 60.11619141 -3.95703125 60.80859375 C-9.93759967 64.29630573 -18.05254017 64.03413993 -24.609375 62.31640625 C-33.46613278 58.63627069 -39.24012702 52.80120079 -43 44 C-46.05267566 34.91668885 -46.70451235 24.08088454 -43.03125 15.05078125 C-38.455586 5.95144943 -33.14550857 0.50372571 -23.625 -3.375 C-14.91414939 -4.87687079 -7.71210113 -4.64421035 0 0 Z " fill="#E1FCFD" transform="translate(873,482)"/>
<path d="M0 0 C6.27 0 12.54 0 19 0 C20.81814076 4.24232844 22.49998784 8.24603251 23.96118164 12.58056641 C24.3148732 13.62499908 24.66856476 14.66943176 25.03297424 15.74551392 C25.40494431 16.85300995 25.77691437 17.96050598 26.16015625 19.1015625 C26.55069687 20.25618988 26.94123749 21.41081726 27.34361267 22.60043335 C28.58591003 26.27439399 29.82444981 29.94960619 31.0625 33.625 C32.30462368 37.30736162 33.54756841 40.98944112 34.792099 44.67098999 C35.56490921 46.95760685 36.33625766 49.2447184 37.10597229 51.53237915 C37.45651169 52.57050751 37.80705109 53.60863586 38.16821289 54.67822266 C38.47449112 55.58754547 38.78076935 56.49686829 39.09632874 57.43374634 C39.9954811 59.9871672 40.97624041 62.49423846 42 65 C44.57555481 61.91721317 45.82932591 59.08307488 47.05297852 55.26928711 C47.42669083 54.1180687 47.80040314 52.96685028 48.18544006 51.78074646 C48.57928391 50.54212357 48.97312775 49.30350067 49.37890625 48.02734375 C49.79500897 46.7396135 50.21192723 45.45214652 50.62962341 44.16493225 C51.72523898 40.78321423 52.8124486 37.39886111 53.89709473 34.01361084 C55.63490753 28.59151376 57.38143212 23.17225968 59.13560295 17.75543404 C59.7457629 15.865073 60.34967807 13.97270001 60.95350647 12.08030701 C61.32406662 10.93224075 61.69462677 9.7841745 62.07641602 8.60131836 C62.40045914 7.58968124 62.72450226 6.57804413 63.05836487 5.53575134 C64 3 64 3 66 0 C67.87939453 -0.34057617 67.87939453 -0.34057617 70.1328125 -0.29296875 C70.93847656 -0.28330078 71.74414062 -0.27363281 72.57421875 -0.26367188 C73.83685547 -0.2259668 73.83685547 -0.2259668 75.125 -0.1875 C75.97449219 -0.17396484 76.82398438 -0.16042969 77.69921875 -0.14648438 C79.79974837 -0.11108219 81.89995293 -0.05727401 84 0 C83.40444357 6.97507619 81.01142747 13.24549641 78.6875 19.8125 C78.24394935 21.08022295 77.80092767 22.34813108 77.35839844 23.61621094 C76.1652072 27.02924858 74.96353777 30.43923934 73.75946045 33.84844971 C72.98809925 36.03371482 72.21861415 38.21963199 71.44970703 40.40576172 C68.69449721 48.23886268 65.93543164 56.07059435 63.15888977 63.89616394 C61.87601592 67.51377086 60.60318422 71.13460506 59.34179688 74.75976562 C59.06805237 75.54361633 58.79430786 76.32746704 58.51226807 77.1350708 C57.98204475 78.65406842 57.45408764 80.17385941 56.9286499 81.69451904 C55.11223786 86.88776214 55.11223786 86.88776214 54 88 C52.29227642 88.08713831 50.58101351 88.10700007 48.87109375 88.09765625 C47.93966553 88.09515869 47.0082373 88.09266113 46.04858398 88.09008789 C44.26109741 88.07643188 44.26109741 88.07643188 42.4375 88.0625 C40.39721868 88.05101181 38.3569353 88.03988555 36.31665039 88.02905273 C34.54443359 88.01936849 32.7722168 88.00968424 31 88 C24.83007628 71.61034817 18.70849594 55.20298256 12.65640831 38.76946259 C11.4096551 35.38431087 10.16023444 32.000192 8.9050293 28.61816406 C7.663509 25.27282612 6.42828456 21.92522792 5.19755745 18.57590485 C4.51045744 16.71086332 3.81699412 14.84817003 3.12339783 12.98553467 C2.50628685 11.30031708 2.50628685 11.30031708 1.87670898 9.58105469 C1.51302719 8.5964325 1.1493454 7.6118103 0.77464294 6.59735107 C0 4 0 4 0 0 Z " fill="#E0FBFD" transform="translate(562,455)"/>
<path d="M0 0 C16.17 0 32.34 0 49 0 C49 5.61 49 11.22 49 17 C38.44 17 27.88 17 17 17 C17 23.27 17 29.54 17 36 C26.24 36 35.48 36 45 36 C45.495 44.415 45.495 44.415 46 53 C36.43 53 26.86 53 17 53 C17 58.94 17 64.88 17 71 C27.89 71 38.78 71 50 71 C50 76.61 50 82.22 50 88 C33.5 88 17 88 0 88 C0 58.96 0 29.92 0 0 Z " fill="#E1FCFD" transform="translate(507,455)"/>
<path d="M0 0 C0.721875 0.639375 1.44375 1.27875 2.1875 1.9375 C6.55079028 5.1372462 10.42308056 5.12253613 15.7109375 4.921875 C16.79117188 4.89609375 17.87140625 4.8703125 18.984375 4.84375 C21.23747244 4.78145238 23.49019206 4.70342585 25.7421875 4.609375 C34.97829861 4.43344907 34.97829861 4.43344907 39.2265625 7.265625 C42.73987698 10.72945618 42.73987698 10.72945618 43 14 C42.03125 16.38378906 42.03125 16.38378906 40.5 19.015625 C39.94054687 19.98822266 39.38109375 20.96082031 38.8046875 21.96289062 C38.20914063 22.96513672 37.61359375 23.96738281 37 25 C36.44570313 25.94552734 35.89140625 26.89105469 35.3203125 27.86523438 C33.56407553 30.83748334 31.78577306 33.79540875 30 36.75 C29.35643555 37.81605469 28.71287109 38.88210938 28.04980469 39.98046875 C26.70911975 42.20034493 25.36764192 44.41974244 24.02539062 46.63867188 C22.00865792 49.98563136 20.01037499 53.34302685 18.015625 56.703125 C16.76064208 58.80221812 15.5054424 60.90118166 14.25 63 C13.66605469 63.9909668 13.08210938 64.98193359 12.48046875 66.00292969 C11.93519531 66.90946289 11.38992188 67.81599609 10.828125 68.75 C10.3527832 69.54921875 9.87744141 70.3484375 9.38769531 71.171875 C8 73 8 73 5 74 C5.33 72.02 5.66 70.04 6 68 C4.02 68.99 4.02 68.99 2 70 C0.75453595 67.50907189 1.2232422 66.58919267 2 64 C-2.65987191 67.0657052 -3.85485202 69.58657319 -5 75 C-6.485 74.01 -6.485 74.01 -8 73 C-9.2941742 74.22880216 -9.2941742 74.22880216 -11 77 C-11.66 77 -12.32 77 -13 77 C-14.55157383 74.32916967 -16.06018972 71.63630108 -17.5625 68.9375 C-18.00013672 68.18533203 -18.43777344 67.43316406 -18.88867188 66.65820312 C-21.62844572 61.67483495 -22.56028303 58.70752882 -21 53 C-20.36777045 51.07169988 -19.70010808 49.15470581 -19 47.25 C-17.11320823 41.47628384 -16.76469341 36.37251528 -16.6875 30.375 C-16.52467532 22.27547461 -15.05874764 15.89567575 -9 10 C-6.76953125 9.2265625 -6.76953125 9.2265625 -5 9 C-4.731875 7.88625 -4.46375 6.7725 -4.1875 5.625 C-3 2 -3 2 0 0 Z M0 70 C0.99 70.495 0.99 70.495 2 71 C1.01 71.495 1.01 71.495 0 72 C0 71.34 0 70.68 0 70 Z " fill="#52B8F3" transform="translate(348,418)"/>
<path d="M0 0 C5.94 0 11.88 0 18 0 C18.58007812 1.63066406 19.16015625 3.26132812 19.7578125 4.94140625 C23.96273268 16.71788689 28.20983809 28.44725656 33 40 C33.32871094 39.1234375 33.65742187 38.246875 33.99609375 37.34375 C38.6640625 24.89583333 43.33203125 12.44791667 48 0 C53.61 0 59.22 0 65 0 C64.33042593 4.01744444 63.79217897 6.97611158 62.44042969 10.65551758 C61.96226555 11.9682238 61.96226555 11.9682238 61.47444153 13.30744934 C61.12709457 14.24368637 60.77974762 15.1799234 60.421875 16.14453125 C59.87686592 17.63112495 59.87686592 17.63112495 59.32084656 19.14775085 C58.13650147 22.37155631 56.94376222 25.59217089 55.75 28.8125 C55.34693634 29.90481934 54.94387268 30.99713867 54.52859497 32.12255859 C49.29700586 46.29993748 43.97873286 60.44054384 38.4375 74.5 C38.16264771 75.19872223 37.88779541 75.89744446 37.60461426 76.61734009 C33.19196582 87.80803418 33.19196582 87.80803418 32 89 C29.13732433 89.07325168 26.299281 89.09238205 23.4375 89.0625 C22.63119141 89.05798828 21.82488281 89.05347656 20.99414062 89.04882812 C18.99606244 89.03700518 16.99802217 89.01906914 15 89 C16.60846758 82.01778846 18.43667726 75.43189623 21.328125 68.86328125 C23.06214574 61.47353007 20.35247468 54.44233314 17.578125 47.64453125 C17.2362616 46.78043137 16.89439819 45.91633148 16.54217529 45.02604675 C15.45510947 42.2839515 14.35324794 39.54811941 13.25 36.8125 C11.81375008 33.21641539 10.38308325 29.61812167 8.953125 26.01953125 C8.43703674 24.72367599 8.43703674 24.72367599 7.91052246 23.40164185 C0 3.46654436 0 3.46654436 0 0 Z " fill="#E1FBFD" transform="translate(761,480)"/>
<path d="M0 0 C0.50789063 0.39832031 1.01578125 0.79664063 1.5390625 1.20703125 C2.22742188 1.73683594 2.91578125 2.26664062 3.625 2.8125 C4.29789062 3.33457031 4.97078125 3.85664063 5.6640625 4.39453125 C11.4631897 8.38021901 15.9925949 9.48336087 22.875 9.6875 C23.65875 9.72166016 24.4425 9.75582031 25.25 9.79101562 C27.16618748 9.87280412 29.08306715 9.9380946 31 10 C26.63456419 19.10986444 21.85769369 27.82059067 16.56689453 36.42724609 C14.98269229 39.0284183 13.41878881 41.6412426 11.85925293 44.25726318 C10.32059399 46.83671206 8.77568947 49.41239306 7.23016357 51.98773193 C6.4519769 53.28715033 5.67613461 54.5879756 4.90264893 55.89019775 C3.80780232 57.73176813 2.70383428 59.56756393 1.59765625 61.40234375 C0.95320557 62.47991943 0.30875488 63.55749512 -0.35522461 64.66772461 C-1.16938843 65.82220093 -1.16938843 65.82220093 -2 67 C-2.66 67 -3.32 67 -4 67 C-5.55157383 64.32916967 -7.06018972 61.63630108 -8.5625 58.9375 C-9.00013672 58.18533203 -9.43777344 57.43316406 -9.88867188 56.65820312 C-12.62844572 51.67483495 -13.56028303 48.70752882 -12 43 C-11.36777045 41.07169988 -10.70010808 39.15470581 -10 37.25 C-8.11351215 31.47721387 -7.76233809 26.37206474 -7.6875 20.375 C-7.54853304 11.9795651 -5.59576934 6.5016119 0 0 Z " fill="#024EBF" transform="translate(339,428)"/>
<path d="M0 0 C5.94 0 11.88 0 18 0 C18 20.79 18 41.58 18 63 C12.06 63 6.12 63 0 63 C0 42.21 0 21.42 0 0 Z " fill="#DCF9FD" transform="translate(655,480)"/>
<path d="M0 0 C3.87850945 2.67801843 6.13291589 5.33624767 7.625 9.8125 C8.13349203 16.04152738 8.35944209 21.53277152 4.625 26.8125 C-0.5713688 31.61914114 -4.78175534 32.17137428 -11.6484375 32.08984375 C-16.80347881 31.56547708 -19.31903036 28.92404699 -22.75 25.3125 C-25.36742662 19.67496575 -25.5150304 13.59686127 -23.71484375 7.62109375 C-21.85172094 3.88678267 -19.1596675 1.32778034 -15.43359375 -0.53125 C-10.17762112 -2.20677828 -5.14207172 -1.80924746 0 0 Z " fill="#034DBE" transform="translate(726.375,496.1875)"/>
<path d="M0 0 C3.80608991 1.90304496 6.06803389 4.25804657 7.453125 8.30078125 C8.89632129 15.06576386 8.37050927 20.58196647 5.05859375 26.66015625 C2.93871654 29.73007877 1.4802642 31.1550161 -2.109375 32.3515625 C-7.29686692 32.84832389 -11.72742173 32.95459665 -16.546875 30.8515625 C-20.74936358 26.75157364 -23.2584837 22.29332178 -23.609375 16.3515625 C-23.2739382 10.47563512 -20.74221222 5.86776849 -16.484375 1.9140625 C-11.40812395 -1.42557635 -5.85700196 -1.80048579 0 0 Z " fill="#0447AC" transform="translate(868.109375,495.6484375)"/>
<path d="M0 0 C0.495 1.98 0.495 1.98 1 4 C3.97 4 6.94 4 10 4 C9.505 2.515 9.505 2.515 9 1 C9.99 0.67 10.98 0.34 12 0 C12.495 1.485 12.495 1.485 13 3 C13.99 3.99 13.99 3.99 15 5 C8.07 5 1.14 5 -6 5 C-5.505 8.96 -5.505 8.96 -5 13 C-5.99 13 -6.98 13 -8 13 C-8.33 16.63 -8.66 20.26 -9 24 C-14.87094438 26.57996518 -20.59609985 26.22552426 -26.875 26.125 C-27.94492187 26.11597656 -29.01484375 26.10695313 -30.1171875 26.09765625 C-32.74502439 26.07419342 -35.37239406 26.04136459 -38 26 C-39.25664978 28.90600261 -40 30.79604584 -40 34 C-40.66 34 -41.32 34 -42 34 C-42 36.31 -42 38.62 -42 41 C-26.655 40.505 -26.655 40.505 -11 40 C-10.34 41.32 -9.68 42.64 -9 44 C-9.66 44.66 -10.32 45.32 -11 46 C-11.46162427 48.43252661 -11.46162427 48.43252661 -11.625 51.125 C-11.69976563 52.03507812 -11.77453125 52.94515625 -11.8515625 53.8828125 C-11.90054688 54.58148438 -11.94953125 55.28015625 -12 56 C-12.99 55.67 -13.98 55.34 -15 55 C-15 50.71 -15 46.42 -15 42 C-24.24 42 -33.48 42 -43 42 C-43 35.73 -43 29.46 -43 23 C-32.44 23 -21.88 23 -11 23 C-11 17.39 -11 11.78 -11 6 C-27.17 6 -43.34 6 -60 6 C-60 35.04 -60 64.08 -60 94 C-61.485 94.495 -61.485 94.495 -63 95 C-63.11572567 83.31737603 -63.20462998 71.63488785 -63.25906086 59.95180798 C-63.28518187 54.52715534 -63.32062592 49.10289412 -63.37719727 43.6784668 C-63.43142726 38.44594273 -63.46140166 33.21379569 -63.47438622 27.98101234 C-63.48364229 25.98222223 -63.50171694 23.98345331 -63.52865028 21.98482323 C-63.56482098 19.19018952 -63.56995041 16.3971241 -63.56762695 13.60229492 C-63.58560333 12.77151428 -63.60357971 11.94073364 -63.62210083 11.08477783 C-63.60127258 8.7775116 -63.60127258 8.7775116 -63 5 C-60.58952332 2.89985657 -60.58952332 2.89985657 -58 2 C-57.34 2.33 -56.68 2.66 -56 3 C-52.93508924 3.11165944 -49.89362367 3.16413384 -46.828125 3.16796875 C-45.91295105 3.17129715 -44.9977771 3.17462555 -44.05487061 3.17805481 C-42.11471052 3.18312419 -40.1745417 3.18546313 -38.234375 3.18530273 C-35.27589358 3.18748094 -32.31778999 3.20561355 -29.359375 3.22460938 C-27.47395961 3.227545 -25.58854244 3.22952867 -23.703125 3.23046875 C-22.82166809 3.23765427 -21.94021118 3.24483978 -21.03204346 3.25224304 C-15.16372843 3.23059384 -10.70764451 2.19640106 -5.3125 -0.1875 C-3 -1 -3 -1 0 0 Z " fill="#1A57C3" transform="translate(567,449)"/>
<path d="M0 0 C0.66 0 1.32 0 2 0 C0.94363703 5.43716236 -0.18368151 10.85314732 -1.38916016 16.25927734 C-1.78001461 18.01296722 -2.16324287 19.76838521 -2.53662109 21.52587891 C-6.22127653 38.4030064 -14.21498225 52.30838887 -23 67 C-23.89332031 68.49587646 -23.89332031 68.49587646 -24.8046875 70.02197266 C-26.19907722 72.3504562 -27.5971481 74.67660818 -29 77 C-30.76462683 73.91190305 -31 72.76687864 -31 69 C-28.625 67.375 -28.625 67.375 -26 66 C-25.01 65.01 -25.01 65.01 -24 64 C-24.99 64 -25.98 64 -27 64 C-26.67 63.34 -26.34 62.68 -26 62 C-25.64830932 60.67139075 -25.31229724 59.33841672 -25 58 C-22.525 57.505 -22.525 57.505 -20 57 C-20.0825 56.0925 -20.165 55.185 -20.25 54.25 C-19.94477769 50.28210991 -18.90426366 49.5522317 -16 47 C-15.67 46.01 -15.34 45.02 -15 44 C-14.01 44 -13.02 44 -12 44 C-10.78731595 40.81670438 -9.99252189 38.36642715 -10.0625 34.9375 C-10 32 -10 32 -8.625 29.75 C-6.26390466 25.75430019 -5.74910277 21.53868152 -5 17 C-5.94875 17 -6.8975 17 -7.875 17 C-9.58333333 17 -11.29166667 17 -13 17 C-14.59878075 18.74574388 -16.01415879 20.59881337 -17.46484375 22.46875 C-19 24 -19 24 -22 24 C-22.268125 24.5775 -22.53625 25.155 -22.8125 25.75 C-24 28 -24 28 -25.5625 30.0625 C-27.18688728 32.04181496 -27.18688728 32.04181496 -28 35 C-29.33333333 35.66666667 -30.66666667 36.33333333 -32 37 C-32.33 37.99 -32.66 38.98 -33 40 C-35.5625 41.1875 -35.5625 41.1875 -38 42 C-38 42.66 -38 43.32 -38 44 C-37.34 44.33 -36.68 44.66 -36 45 C-36.99 45.495 -36.99 45.495 -38 46 C-38.66 45.67 -39.32 45.34 -40 45 C-40.66 46.32 -41.32 47.64 -42 49 C-40.41782231 37.3022383 -29.58577302 28.03653331 -21.5 20.1875 C-20.49521132 19.19425127 -19.49130182 18.20011234 -18.48828125 17.20507812 C-3.0960705 2 -3.0960705 2 0 2 C0 1.34 0 0.68 0 0 Z " fill="#72D2F9" transform="translate(403,294)"/>
<path d="M0 0 C2.92937654 1.81310142 5.43647949 3.87295899 7 7 C7.39447548 11.18144011 7.45035186 13.30946048 5.125 16.875 C2.19961143 19.80038857 1.42659437 19.96503325 -2.8125 20.3125 C-6.13227327 20.28232024 -6.99044521 20.0060988 -9.9375 18.125 C-12.55197555 15.43129792 -12.94056139 14.51513465 -13.375 10.75 C-12.88072704 5.80727042 -11.46171699 4.46171699 -8 1 C-5.09704195 -0.45147903 -3.22738221 -0.37239025 0 0 Z " fill="#E0FAFD" transform="translate(667,454)"/>
<path d="M0 0 C0.66 0.33 1.32 0.66 2 1 C3.15613581 6.8857823 2.88860329 12.0942058 2 18 C-3.87094438 20.57996518 -9.59609985 20.22552426 -15.875 20.125 C-16.94492187 20.11597656 -18.01484375 20.10695313 -19.1171875 20.09765625 C-21.74502439 20.07419342 -24.37239406 20.04136459 -27 20 C-28.25664978 22.90600261 -29 24.79604584 -29 28 C-29.66 28 -30.32 28 -31 28 C-31 30.31 -31 32.62 -31 35 C-15.655 34.505 -15.655 34.505 0 34 C0.66 35.32 1.32 36.64 2 38 C1.34 38.66 0.68 39.32 0 40 C-0.46162427 42.43252661 -0.46162427 42.43252661 -0.625 45.125 C-0.69976563 46.03507812 -0.77453125 46.94515625 -0.8515625 47.8828125 C-0.90054688 48.58148438 -0.94953125 49.28015625 -1 50 C-2.485 49.505 -2.485 49.505 -4 49 C-4 44.71 -4 40.42 -4 36 C-13.24 36 -22.48 36 -32 36 C-32 29.73 -32 23.46 -32 17 C-21.44 17 -10.88 17 0 17 C0 11.39 0 5.78 0 0 Z " fill="#0646BC" transform="translate(556,455)"/>
<path d="M0 0 C0.66 0.33 1.32 0.66 2 1 C-0.76733255 10.77790834 -0.76733255 10.77790834 -2.375 12.3125 C-4.91118695 14.9462326 -7 18.2763703 -7 22 C-7.66 22 -8.32 22 -9 22 C-9.33 23.32 -9.66 24.64 -10 26 C-9.34 26.33 -8.68 26.66 -8 27 C-8.99 27.33 -9.98 27.66 -11 28 C-11.28875 29.093125 -11.5775 30.18625 -11.875 31.3125 C-13.2070074 35.67852426 -14.51185447 36.24193144 -18 39 C-20.91000054 43.39825795 -23.13631756 48.07455356 -25 53 C-27.57943925 58.71962617 -27.57943925 58.71962617 -31 61 C-30.55149191 55.35747887 -28.90780701 51.53541322 -25.875 46.75 C-24.96923566 45.26640585 -24.06715468 43.78055918 -23.16796875 42.29296875 C-22.6682959 41.46716309 -22.16862305 40.64135742 -21.65380859 39.79052734 C-18.7336618 34.86326459 -15.95582811 29.85641574 -13.17803955 24.84802246 C-12.21017516 23.1033737 -11.23867535 21.3607433 -10.26708984 19.61816406 C-6.68109141 13.1544658 -3.23468255 6.64682664 0 0 Z " fill="#034CBC" transform="translate(471,548)"/>
<path d="M0 0 C0.99 0 1.98 0 3 0 C3 21.12 3 42.24 3 64 C0.65147472 65.17426264 -0.73774065 65.11508173 -3.3515625 65.09765625 C-4.20234375 65.09443359 -5.053125 65.09121094 -5.9296875 65.08789062 C-6.81914063 65.07951172 -7.70859375 65.07113281 -8.625 65.0625 C-9.5221875 65.05798828 -10.419375 65.05347656 -11.34375 65.04882812 C-13.56256648 65.03702591 -15.78125018 65.02056155 -18 65 C-18 64.34 -18 63.68 -18 63 C-12.06 63 -6.12 63 0 63 C0 42.21 0 21.42 0 0 Z " fill="#3B68B3" transform="translate(893,480)"/>
<path d="M0 0 C3.35770877 2.23847252 3.2145965 2.40958399 4 6 C4.66 6.66 5.32 7.32 6 8 C5.34 8 4.68 8 4 8 C4.433125 8.969375 4.86625 9.93875 5.3125 10.9375 C7.50337372 16.05646086 9.65231377 21.33440558 10.375 26.875 C11.28178585 29.9580719 13.29345296 30.47322987 16 32 C16 32.99 16 33.98 16 35 C16.33 35.99 16.66 36.98 17 38 C16.34 38.99 15.68 39.98 15 41 C15.63028587 42.68076231 16.29788106 44.34795544 17 46 C16.67 46.99 16.34 47.98 16 49 C13.35991943 47.67995972 13.3314906 46.66528315 12.38012695 43.91088867 C12.07673904 43.04296188 11.77335114 42.1750351 11.46076965 41.2808075 C11.13984848 40.33607071 10.81892731 39.39133392 10.48828125 38.41796875 C10.1557988 37.45224442 9.82331635 36.48652008 9.48075867 35.49153137 C8.77855837 33.44413314 8.08024833 31.39539723 7.38549805 29.34545898 C6.31903112 26.20672185 5.23357669 23.07500347 4.14648438 19.94335938 C3.46758255 17.95612762 2.7898106 15.96850944 2.11328125 13.98046875 C1.78628738 13.04180466 1.45929352 12.10314056 1.12239075 11.1360321 C0.82845932 10.25864883 0.53452789 9.38126556 0.23168945 8.47729492 C-0.03097214 7.7075383 -0.29363373 6.93778168 -0.56425476 6.1446991 C-1.05139273 3.74704957 -0.77080284 2.298017 0 0 Z " fill="#0C49BA" transform="translate(584,458)"/>
<path d="M0 0 C0.66 0 1.32 0 2 0 C1.67 0.94875 1.34 1.8975 1 2.875 C-0.10159191 5.77062452 -0.10159191 5.77062452 0 8 C0.66 8 1.32 8 2 8 C2.33 7.34 2.66 6.68 3 6 C3.33 6.66 3.66 7.32 4 8 C4.66 8 5.32 8 6 8 C5.00102287 10.99693138 4.34869747 12.02709413 2 14 C1.34 14 0.68 14 0 14 C0 15.32 0 16.64 0 18 C-0.66 18 -1.32 18 -2 18 C-2 20.97 -2 23.94 -2 27 C-2.66 26.67 -3.32 26.34 -4 26 C-4 25.67 -4 25.34 -4 25 C-5.98 25.66 -7.96 26.32 -10 27 C-9.33190093 24.99570278 -8.66316149 22.99161787 -7.9921875 20.98828125 C-7.23822833 18.71749871 -6.49471207 16.4442818 -5.7578125 14.16796875 C-5.3177173 12.82030957 -4.87761311 11.47265333 -4.4375 10.125 C-4.12292847 9.14358032 -4.12292847 9.14358032 -3.80200195 8.14233398 C-2.79591903 5.07642239 -1.80469817 2.70704726 0 0 Z " fill="#044AB3" transform="translate(829,479)"/>
<path d="M0 0 C2 4 2 4 3 7 C2.67 7.33 2.34 7.66 2 8 C1.9262811 10.96644866 1.90779772 13.90934125 1.9375 16.875 C1.94201172 17.70386719 1.94652344 18.53273438 1.95117188 19.38671875 C1.95991014 20.93214325 1.97069416 22.47755842 1.98413086 24.02294922 C1.99744688 25.68192114 2 27.34097464 2 29 C2.00988246 30.81120185 2.02057946 32.62239931 2.03173828 34.43359375 C2.06766499 40.61814395 2.09081726 46.80268115 2.10986328 52.98730469 C2.1188289 55.66248147 2.13278498 58.33756507 2.15087891 61.01269531 C2.17506566 64.86265778 2.18646628 68.71247559 2.1953125 72.5625 C2.20563507 73.76253662 2.21595764 74.96257324 2.22659302 76.19897461 C2.22674408 77.31022705 2.22689514 78.42147949 2.22705078 79.56640625 C2.231492 80.54552979 2.23593323 81.52465332 2.24050903 82.53344727 C2 85 2 85 0 88 C0 58.96 0 29.92 0 0 Z " fill="#0847BE" transform="translate(753,456)"/>
<path d="M0 0 C0.99 0.33 1.98 0.66 3 1 C2.6875 3.875 2.6875 3.875 2 7 C1.01 7.66 0.02 8.32 -1 9 C-1.72382467 11.05925139 -1.72382467 11.05925139 -2 13 C-2.99 13 -3.98 13 -5 13 C-5.33 13.99 -5.66 14.98 -6 16 C-6.99 16.33 -7.98 16.66 -9 17 C-9 17.66 -9 18.32 -9 19 C-10.32 19.33 -11.64 19.66 -13 20 C-13 19.01 -13 18.02 -13 17 C-13.45375 17.495 -13.9075 17.99 -14.375 18.5 C-16 20 -16 20 -18 20 C-19.38529821 14.54538831 -20.2396943 9.63281599 -20 4 C-19.01 4 -18.02 4 -17 4 C-17.06510417 6.01822917 -17.13020833 8.03645833 -17.1953125 10.0546875 C-17.18331689 12.23863645 -17.18331689 12.23863645 -15 14 C-10.99140197 14.51522224 -10.99140197 14.51522224 -7.5078125 12.8359375 C-5.57727028 10.48527728 -4.23501196 7.99946703 -2.8125 5.3125 C-2.28269531 4.31863281 -1.75289063 3.32476562 -1.20703125 2.30078125 C-0.80871094 1.54152344 -0.41039062 0.78226562 0 0 Z " fill="#034FC4" transform="translate(420,459)"/>
<path d="M0 0 C2.31 0.33 4.62 0.66 7 1 C7.33 2.65 7.66 4.3 8 6 C7.01 6.33 6.02 6.66 5 7 C3.99083967 8.76591887 3.99083967 8.76591887 3 11 C2.34 11.969375 1.68 12.93875 1 13.9375 C-2.25201063 18.91714128 -3.30564839 23.09801134 -4 29 C-4.33 29 -4.66 29 -5 29 C-5.33 30.98 -5.66 32.96 -6 35 C-6.33 35 -6.66 35 -7 35 C-7.29091039 27.29087464 -6.9612734 18.81883322 -3 12 C-2.505 11.525625 -2.01 11.05125 -1.5 10.5625 C0.39903312 8.5843405 1.09899031 6.56441218 2 4 C1.34 4 0.68 4 0 4 C0 2.68 0 1.36 0 0 Z M2 1 C1.67 1.66 1.34 2.32 1 3 C1.66 3 2.32 3 3 3 C2.67 2.34 2.34 1.68 2 1 Z " fill="#0F4BB9" transform="translate(688,480)"/>
<path d="M0 0 C0.66 0.33 1.32 0.66 2 1 C1.41444623 5.68443012 -0.30480319 10.12405031 -3 14 C-5.13671875 15.23828125 -5.13671875 15.23828125 -7 16 C-7 16.66 -7 17.32 -7 18 C-10 19 -10 19 -13 18 C-13.33 17.34 -13.66 16.68 -14 16 C-17.02934491 15.34227572 -17.02934491 15.34227572 -20 15 C-19.42415568 12.61435923 -18.77772405 10.33317216 -18 8 C-18.33 7.34 -18.66 6.68 -19 6 C-18.01 5.01 -17.02 4.02 -16 3 C-15.34 3.33 -14.68 3.66 -14 4 C-14.20625 5.11375 -14.4125 6.2275 -14.625 7.375 C-14.810625 9.169375 -14.810625 9.169375 -15 11 C-13.1206372 13.23727979 -13.1206372 13.23727979 -10.1875 13.625 C-7.00662316 13.33546435 -7.00662316 13.33546435 -5.56640625 11.38671875 C-3.27523039 7.77658705 -1.39257242 4.05111975 0 0 Z " fill="#0452C1" transform="translate(444,477)"/>
<path d="M0 0 C0.99 0.66 1.98 1.32 3 2 C2.67 4.31 2.34 6.62 2 9 C1.34 9 0.68 9 0 9 C-0.59732819 11.76264289 -1 14.16032769 -1 17 C-1.61875 17.061875 -2.2375 17.12375 -2.875 17.1875 C-5.25602845 17.82051688 -5.25602845 17.82051688 -6.1875 20.4375 C-6.455625 21.283125 -6.72375 22.12875 -7 23 C-7.33 23.66 -7.66 24.32 -8 25 C-8.22467831 26.53668865 -8.40796805 28.07968054 -8.5625 29.625 C-8.64628906 30.44226563 -8.73007812 31.25953125 -8.81640625 32.1015625 C-8.87699219 32.72804688 -8.93757813 33.35453125 -9 34 C-9.66 33.34 -10.32 32.68 -11 32 C-10.67 31.34 -10.34 30.68 -10 30 C-10.99 29.67 -11.98 29.34 -13 29 C-12.48050781 27.99582031 -11.96101563 26.99164062 -11.42578125 25.95703125 C-7.07496685 17.45582384 -3.20840187 9.00820524 0 0 Z " fill="#0451C5" transform="translate(485,518)"/>
<path d="M0 0 C1.98 0.495 1.98 0.495 4 1 C3.67 2.98 3.34 4.96 3 7 C2.34 7 1.68 7 1 7 C1.0721875 8.20269531 1.144375 9.40539062 1.21875 10.64453125 C1.87725294 22.48227012 2.08385296 34.25411097 1.875 46.1105957 C1.86339844 47.20976318 1.85179687 48.30893066 1.83984375 49.44140625 C1.82300537 50.41795166 1.80616699 51.39449707 1.78881836 52.40063477 C1.83732627 55.01648382 1.83732627 55.01648382 3.09594727 57.17553711 C3.39428467 57.77760986 3.69262207 58.37968262 4 59 C2.625 61.75 2.625 61.75 1 64 C0.34 63.67 -0.32 63.34 -1 63 C-0.67 42.21 -0.34 21.42 0 0 Z " fill="#0C50CC" transform="translate(675,480)"/>
<path d="M0 0 C3.80608991 1.90304496 6.06803389 4.25804657 7.453125 8.30078125 C9.11625636 16.09670951 7.91152752 21.5662895 3.890625 28.3515625 C3.265625 26.5390625 3.265625 26.5390625 2.890625 24.3515625 C3.550625 23.3615625 4.210625 22.3715625 4.890625 21.3515625 C5.20917876 18.28543851 5.20917876 18.28543851 5.140625 14.9140625 C5.14578125 13.78097656 5.1509375 12.64789063 5.15625 11.48046875 C4.89885087 8.44845843 4.65364616 6.80082291 2.890625 4.3515625 C-0.32599526 2.10572403 -3.51155892 1.97750703 -7.359375 1.7265625 C-8.43703125 1.65179688 -9.5146875 1.57703125 -10.625 1.5 C-11.44484375 1.45101563 -12.2646875 1.40203125 -13.109375 1.3515625 C-13.439375 2.3415625 -13.769375 3.3315625 -14.109375 4.3515625 C-15.4247091 5.05307402 -16.76055092 5.71682175 -18.109375 6.3515625 C-19.81859089 7.8927937 -19.81859089 7.8927937 -21.109375 9.3515625 C-19.75655331 4.92414606 -17.87638612 2.98847029 -14.109375 0.3515625 C-9.92720578 -1.73952211 -4.39773656 -1.3518968 0 0 Z " fill="#0F388D" transform="translate(868.109375,495.6484375)"/>
<path d="M0 0 C0.66 0.66 1.32 1.32 2 2 C1.66666667 3.33333333 1.33333333 4.66666667 1 6 C1.66 6.66 2.32 7.32 3 8 C3 8.99 3 9.98 3 11 C2.01 11 1.02 11 0 11 C-0.33 11.66 -0.66 12.32 -1 13 C-2.32 12.67 -3.64 12.34 -5 12 C-5 14.31 -5 16.62 -5 19 C-5.99 19 -6.98 19 -8 19 C-8 19.66 -8 20.32 -8 21 C-9.65 20.67 -11.3 20.34 -13 20 C-12.01956631 16.88043825 -11.117979 15.1147018 -8.75 12.8125 C-5.02054435 8.99828399 -2.61241884 4.62335292 0 0 Z " fill="#0451C4" transform="translate(436,611)"/>
<path d="M0 0 C0.33 0 0.66 0 1 0 C1.01417969 1.02480469 1.02835938 2.04960937 1.04296875 3.10546875 C1.08989016 4.46618971 1.13813744 5.82686541 1.1875 7.1875 C1.19330078 7.86103516 1.19910156 8.53457031 1.20507812 9.22851562 C1.36891204 12.96028804 1.91689009 14.88798229 4.15625 17.90625 C7.35174482 20.25897695 9.40227729 20.83983572 13.3125 21.3125 C14.38113281 21.45300781 15.44976563 21.59351563 16.55078125 21.73828125 C17.35902344 21.82464844 18.16726563 21.91101563 19 22 C19 21.34 19 20.68 19 20 C19.763125 20.04125 20.52625 20.0825 21.3125 20.125 C24.22718416 20.22080824 24.22718416 20.22080824 27 18 C25.99734298 20.73451915 25.41380593 21.79525978 22.7578125 23.109375 C16.94984297 24.98503655 11.08482196 24.9855522 5.5625 22.375 C1.75208362 18.84339458 -0.77770088 16.39206373 -1.27734375 11.015625 C-1.36651054 2.73302108 -1.36651054 2.73302108 0 0 Z " fill="#0A399F" transform="translate(703,504)"/>
<path d="M0 0 C0.33 0 0.66 0 1 0 C1 5.94 1 11.88 1 18 C16.345 17.505 16.345 17.505 32 17 C32.66 18.32 33.32 19.64 34 21 C33.34 21.66 32.68 22.32 32 23 C31.53837573 25.43252661 31.53837573 25.43252661 31.375 28.125 C31.30023437 29.03507812 31.22546875 29.94515625 31.1484375 30.8828125 C31.09945312 31.58148438 31.05046875 32.28015625 31 33 C29.515 32.505 29.515 32.505 28 32 C28 27.71 28 23.42 28 19 C18.76 19 9.52 19 0 19 C0 12.73 0 6.46 0 0 Z " fill="#3C75CF" transform="translate(524,472)"/>
<path d="M0 0 C3.87498177 0.80969768 6.06535216 2.30329658 9 5 C9.33 5.99 9.66 6.98 10 8 C8.35 8.66 6.7 9.32 5 10 C5 8.35 5 6.7 5 5 C4.01 5.66 3.02 6.32 2 7 C1.34 7 0.68 7 0 7 C-0.061875 7.928125 -0.12375 8.85625 -0.1875 9.8125 C-1 13 -1 13 -3.5625 14.875 C-4.7690625 15.431875 -4.7690625 15.431875 -6 16 C-5.59683075 9.68368172 -3.28767869 5.35006016 0 0 Z " fill="#054FBA" transform="translate(429,442)"/>
<path d="M0 0 C3.54159657 -0.05841253 7.08306793 -0.09373452 10.625 -0.125 C11.62402344 -0.14175781 12.62304688 -0.15851563 13.65234375 -0.17578125 C18.84088709 -0.21014246 23.14923649 -0.10254937 28 2 C27.67 3.65 27.34 5.3 27 7 C26.01 7 25.02 7 24 7 C24.33 6.01 24.66 5.02 25 4 C19.06 3.01 19.06 3.01 13 2 C13 2.66 13 3.32 13 4 C12.34 4 11.68 4 11 4 C11 3.34 11 2.68 11 2 C9.948125 2.37125 8.89625 2.7425 7.8125 3.125 C3.81367786 4.04276246 2.50871784 3.91384609 -1 2 C-0.67 1.34 -0.34 0.68 0 0 Z " fill="#064FC1" transform="translate(363,408)"/>
<path d="M0 0 C0 0.99 0 1.98 0 3 C0.33 3.99 0.66 4.98 1 6 C0.443125 6.4125 -0.11375 6.825 -0.6875 7.25 C-1.8321875 8.11625 -1.8321875 8.11625 -3 9 C-3.886875 9.66 -4.77375 10.32 -5.6875 11 C-8.2374996 12.86135195 -8.2374996 12.86135195 -9 16 C-10.87617698 17.84499398 -12.92737609 19.3683599 -15 21 C-15.66 20.34 -16.32 19.68 -17 19 C-16.32453125 18.20335937 -15.6490625 17.40671875 -14.953125 16.5859375 C-14.05192294 15.51576005 -13.15089032 14.4454399 -12.25 13.375 C-11.8065625 12.85292969 -11.363125 12.33085938 -10.90625 11.79296875 C-8.68683309 9.14925155 -6.73167768 6.58184806 -4.859375 3.6640625 C-3 1 -3 1 0 0 Z " fill="#0347AC" transform="translate(320,618)"/>
<path d="M0 0 C0.99 0 1.98 0 3 0 C2.69128878 1.79232337 2.37790936 3.58384321 2.0625 5.375 C1.88847656 6.37273437 1.71445312 7.37046875 1.53515625 8.3984375 C1 11 1 11 0 13 C-0.99 13 -1.98 13 -3 13 C-3.33 14.32 -3.66 15.64 -4 17 C-4.99 17 -5.98 17 -7 17 C-8 14 -8 14 -6.34765625 10.64453125 C-5.59622298 9.36110983 -4.83403499 8.08393866 -4.0625 6.8125 C-3.48338867 5.83120117 -3.48338867 5.83120117 -2.89257812 4.83007812 C-1.93746912 3.21464684 -0.96989934 1.60659475 0 0 Z " fill="#054EBB" transform="translate(382,355)"/>
<path d="M0 0 C3 1 3 1 3.9921875 2.671875 C4.28351562 3.35765625 4.57484375 4.0434375 4.875 4.75 C7.40663019 10.15145525 11.15567517 13.59103068 16 17 C15.67 18.32 15.34 19.64 15 21 C12.69 20.34 10.38 19.68 8 19 C7.67 19.66 7.34 20.32 7 21 C6.34 20.34 5.68 19.68 5 19 C5.99 18.01 6.98 17.02 8 16 C6.87548273 13.0280615 5.77706209 10.66559313 4 8 C3.01 7.67 2.02 7.34 1 7 C1 6.34 1 5.68 1 5 C0.34 5 -0.32 5 -1 5 C-0.67 3.35 -0.34 1.7 0 0 Z " fill="#113FA2" transform="translate(683,523)"/>
<path d="M0 0 C0.33 0.66 0.66 1.32 1 2 C-0.3359375 4.71459961 -0.3359375 4.71459961 -2.375 8.15234375 C-2.737146 8.76711075 -3.09929199 9.38187775 -3.47241211 10.01527405 C-4.64080759 11.99387979 -5.82043264 13.96553865 -7 15.9375 C-7.76501909 17.23201071 -8.52934989 18.52692844 -9.29296875 19.82226562 C-13.72036208 27.30828073 -18.2734438 34.69834456 -23 42 C-23.33 41.34 -23.66 40.68 -24 40 C-22.9519043 37.81689453 -22.9519043 37.81689453 -21.32421875 35.1328125 C-20.45313477 33.68068359 -20.45313477 33.68068359 -19.56445312 32.19921875 C-18.94505859 31.18472656 -18.32566406 30.17023438 -17.6875 29.125 C-16.48202683 27.12823533 -15.2775598 25.13086281 -14.07421875 23.1328125 C-13.53369873 22.24480957 -12.99317871 21.35680664 -12.4362793 20.44189453 C-11.19269107 18.3276043 -10.07274161 16.20401278 -9 14 C-8.32060085 12.80784678 -7.6333264 11.62014032 -6.9375 10.4375 C-4.94918182 7.16476776 -4.94918182 7.16476776 -4 4 C-2.70644173 2.62804426 -1.37701298 1.28817344 0 0 Z " fill="#61C0FA" transform="translate(379,449)"/>
<path d="M0 0 C3 1 3 1 3.89135742 2.76586914 C4.12701416 3.51473389 4.3626709 4.26359863 4.60546875 5.03515625 C4.86650391 5.84404297 5.12753906 6.65292969 5.39648438 7.48632812 C5.78803711 8.7615332 5.78803711 8.7615332 6.1875 10.0625 C6.46013672 10.91650391 6.73277344 11.77050781 7.01367188 12.65039062 C7.68664255 14.76375469 8.34816676 16.88003968 9 19 C8.01 19 7.02 19 6 19 C6 19.66 6 20.32 6 21 C4.02 20.67 2.04 20.34 0 20 C0.33 18.68 0.66 17.36 1 16 C1.66 16.66 2.32 17.32 3 18 C4.41184568 14.24395771 3.53327768 12.07730334 2.0625 8.4375 C0 3.28474576 0 3.28474576 0 0 Z " fill="#0C46B6" transform="translate(584,523)"/>
<path d="M0 0 C3.32451521 3.06205348 5.93731652 5.51311418 7 10 C6.01 11.485 6.01 11.485 5 13 C4.01 11.68 3.02 10.36 2 9 C0.05000871 9.19471111 0.05000871 9.19471111 -2 10 C-3.28436734 11.9837767 -3.28436734 11.9837767 -4 14 C-4.33 13.34 -4.66 12.68 -5 12 C-4.26821134 9.92803369 -3.44100997 7.8891448 -2.5625 5.875 C-2.08941406 4.77929688 -1.61632812 3.68359375 -1.12890625 2.5546875 C-0.75636719 1.71164062 -0.38382812 0.86859375 0 0 Z " fill="#0550BA" transform="translate(468,494)"/>
<path d="M0 0 C0.99 0.33 1.98 0.66 3 1 C4.03479859 3.37166266 4.86339135 5.60392749 5.625 8.0625 C5.84373779 8.7419165 6.06247559 9.42133301 6.2878418 10.12133789 C7.74079217 14.77378173 8.7028352 19.14630824 9 24 C5.12328873 21.41552582 5.19213805 19.37117286 4 15 C3.34 14.67 2.68 14.34 2 14 C1.59270772 11.67843403 1.25561323 9.3431213 1 7 C0.01 7 -0.98 7 -2 7 C-1.34 4.69 -0.68 2.38 0 0 Z " fill="#0A54CC" transform="translate(562,463)"/>
<path d="M0 0 C0.99 0.33 1.98 0.66 3 1 C2.649375 1.928125 2.29875 2.85625 1.9375 3.8125 C0.67617372 6.9802953 0.67617372 6.9802953 2 10 C1.01 10.33 0.02 10.66 -1 11 C-1 10.34 -1 9.68 -1 9 C-1.66 9.66 -2.32 10.32 -3 11 C-3.99 11.495 -3.99 11.495 -5 12 C-5.38218767 13.65614657 -5.71395102 15.32457024 -6 17 C-6.33 17.66 -6.66 18.32 -7 19 C-7.66 19 -8.32 19 -9 19 C-10 16 -10 16 -9.19555664 14.19067383 C-8.77137451 13.53607178 -8.34719238 12.88146973 -7.91015625 12.20703125 C-7.45576172 11.49482422 -7.00136719 10.78261719 -6.53320312 10.04882812 C-6.04787109 9.31083984 -5.56253906 8.57285156 -5.0625 7.8125 C-4.58103516 7.06291016 -4.09957031 6.31332031 -3.60351562 5.54101562 C-2.4113798 3.6878936 -1.21003348 1.84146534 0 0 Z " fill="#034DBD" transform="translate(365,475)"/>
<path d="M0 0 C0.33 0.66 0.66 1.32 1 2 C2.65 1.67 4.3 1.34 6 1 C5.79375 2.03125 5.5875 3.0625 5.375 4.125 C4.97164954 8.29295478 5.0362301 10.31793143 7 14 C9.25378586 15.67735676 11.44651125 16.77054245 14 18 C14 18.66 14 19.32 14 20 C13.01 20.33 12.02 20.66 11 21 C7.12743603 18.80682516 3.71774348 15.87114786 2.10546875 11.66796875 C1.625 9.3125 1.625 9.3125 1.3515625 7.11328125 C0.96228002 4.77326102 0.14605435 3.06382959 -1 1 C-0.67 0.67 -0.34 0.34 0 0 Z " fill="#0251C1" transform="translate(450,440)"/>
<path d="M0 0 C0.99 0.33 1.98 0.66 3 1 C0.90336901 4.97256398 -1.30075595 7.43898489 -5 10 C-5.66 10 -6.32 10 -7 10 C-7.33 11.32 -7.66 12.64 -8 14 C-10.07553648 14.5534764 -11.84365964 15 -14 15 C-12.45228201 10.94071568 -9.81099911 9.00518575 -6.4375 6.375 C-2.66438611 3.64991295 -2.66438611 3.64991295 0 0 Z " fill="#0446AD" transform="translate(277,523)"/>
<path d="M0 0 C3.50910665 1.16970222 3.78174698 1.85048928 5.5625 4.9375 C6.94197027 7.30537576 8.04971701 9.04971701 10 11 C10 11.33 10 11.66 10 12 C12.64 12.33 15.28 12.66 18 13 C17.67 14.32 17.34 15.64 17 17 C14.03 17 11.06 17 8 17 C7.9175 16.071875 7.835 15.14375 7.75 14.1875 C6.88508253 10.51160074 6.05938298 9.97379547 3 8 C3 7.34 3 6.68 3 6 C2.01 5.67 1.02 5.34 0 5 C0 3.35 0 1.7 0 0 Z " fill="#014EC3" transform="translate(321,502)"/>
<path d="M0 0 C4.51290803 3.33562767 6.68206814 5.33289301 8 11 C7.01 11.495 7.01 11.495 6 12 C3.875 11.0625 3.875 11.0625 2 10 C2.33 9.01 2.66 8.02 3 7 C2.34 7 1.68 7 1 7 C1 7.66 1 8.32 1 9 C-0.32 9.33 -1.64 9.66 -3 10 C-3.33 9.34 -3.66 8.68 -4 8 C-3.22265625 6.0546875 -3.22265625 6.0546875 -2.0625 3.875 C-1.49208984 2.78832031 -1.49208984 2.78832031 -0.91015625 1.6796875 C-0.60980469 1.12539063 -0.30945313 0.57109375 0 0 Z " fill="#0653C6" transform="translate(449,467)"/>
<path d="M0 0 C2 0 2 0 4.125 1.9375 C6.64129481 6.04744819 6.36823948 9.30494667 6 14 C5.67 14 5.34 14 5 14 C5 12.02 5 10.04 5 8 C2.69 7.34 0.38 6.68 -2 6 C-2.0825 6.78375 -2.165 7.5675 -2.25 8.375 C-3 11 -3 11 -5.0625 12.3125 C-6.0215625 12.6528125 -6.0215625 12.6528125 -7 13 C-6.74126898 8.60157266 -6.43893111 6.50477078 -3.5 3.125 C-2.2625 2.073125 -2.2625 2.073125 -1 1 C-0.67 0.67 -0.34 0.34 0 0 Z " fill="#054CB5" transform="translate(314,432)"/>
<path d="M0 0 C0 0.66 0 1.32 0 2 C-4.38461538 5 -4.38461538 5 -7 5 C-7 5.99 -7 6.98 -7 8 C-7.99 8.495 -7.99 8.495 -9 9 C-8.67 10.65 -8.34 12.3 -8 14 C-8.763125 13.773125 -9.52625 13.54625 -10.3125 13.3125 C-11.6428125 13.1578125 -11.6428125 13.1578125 -13 13 C-14.8354799 14.33378575 -14.8354799 14.33378575 -16 16 C-16 11.25625892 -13.07110772 8.44661434 -10 5 C-4.33014354 0 -4.33014354 0 0 0 Z " fill="#0145AD" transform="translate(422,631)"/>
<path d="M0 0 C0.33 0.66 0.66 1.32 1 2 C-0.22055356 4.70939304 -1.49400697 7.31176576 -2.875 9.9375 C-3.62407724 11.38324464 -4.37153792 12.82982829 -5.1171875 14.27734375 C-5.45347168 14.91921631 -5.78975586 15.56108887 -6.13623047 16.22241211 C-7.12618615 18.16155701 -7.12618615 18.16155701 -8 21 C-8.99 21.33 -9.98 21.66 -11 22 C-11.73828125 20.44140625 -11.73828125 20.44140625 -12 18 C-10.82128671 15.50578446 -9.62154122 13.27418646 -8.1875 10.9375 C-7.81818359 10.31294922 -7.44886719 9.68839844 -7.06835938 9.04492188 C-2.40703303 1.20351651 -2.40703303 1.20351651 0 0 Z " fill="#054AB7" transform="translate(398,330)"/>
<path d="M0 0 C0.99 0.66 1.98 1.32 3 2 C2.67 2.33 2.34 2.66 2 3 C1.92773498 4.85287502 1.9161878 6.70833878 1.9375 8.5625 C1.94652344 9.57441406 1.95554687 10.58632813 1.96484375 11.62890625 C1.97644531 12.41136719 1.98804688 13.19382812 2 14 C1.34 14 0.68 14 0 14 C-0.33 12.68 -0.66 11.36 -1 10 C-4.05270463 9.84188612 -4.05270463 9.84188612 -7 11 C-6.34 8.03 -5.68 5.06 -5 2 C-3.68 2 -2.36 2 -1 2 C-0.67 1.34 -0.34 0.68 0 0 Z " fill="#054FC9" transform="translate(652,456)"/>
<path d="M0 0 C0.66 0.99 1.32 1.98 2 3 C1.67 3.99 1.34 4.98 1 6 C0.85013589 7.9906444 0.75171962 9.98535391 0.68359375 11.98046875 C0.64169922 13.14384766 0.59980469 14.30722656 0.55664062 15.50585938 C0.51732422 16.72080078 0.47800781 17.93574219 0.4375 19.1875 C0.39431641 20.41404297 0.35113281 21.64058594 0.30664062 22.90429688 C0.2004691 25.93608381 0.09842048 28.96795315 0 32 C-2.475 31.01 -2.475 31.01 -5 30 C-5 29.01 -5 28.02 -5 27 C-4.01 26.67 -3.02 26.34 -2 26 C-2 24.73542969 -2 23.47085937 -2 22.16796875 C-2 4.625 -2 4.625 0 0 Z " fill="#0446C0" transform="translate(733,450)"/>
<path d="M0 0 C0.33 0.66 0.66 1.32 1 2 C-0.21484375 4.3828125 -0.21484375 4.3828125 -1.9375 7.125 C-2.50339844 8.03507813 -3.06929688 8.94515625 -3.65234375 9.8828125 C-4.09707031 10.58148437 -4.54179687 11.28015625 -5 12 C-6.51953125 10.6171875 -6.51953125 10.6171875 -8 9 C-7.6875 7.125 -7.6875 7.125 -7 5 C-6.96213099 3.33376361 -6.95372155 1.66602403 -7 0 C-4.30234372 -1.34882814 -2.84835666 -0.80338265 0 0 Z " fill="#0350C6" transform="translate(424,601)"/>
<path d="M0 0 C0.33 0.66 0.66 1.32 1 2 C1.99 2.33 2.98 2.66 4 3 C3.67 4.32 3.34 5.64 3 7 C2.29335205 6.83701416 1.5867041 6.67402832 0.85864258 6.50610352 C-2.07644539 5.98646586 -4.75988693 5.88641651 -7.73828125 5.90234375 C-9.33833008 5.90717773 -9.33833008 5.90717773 -10.97070312 5.91210938 C-12.07349609 5.92048828 -13.17628906 5.92886719 -14.3125 5.9375 C-15.99569336 5.94426758 -15.99569336 5.94426758 -17.71289062 5.95117188 C-20.4753151 5.96292687 -23.23762998 5.97935923 -26 6 C-25.938125 7.918125 -25.938125 7.918125 -25.875 9.875 C-25.8046875 12.0546875 -25.8046875 12.0546875 -26 14 C-26.66 14.66 -27.32 15.32 -28 16 C-28 12.04 -28 8.08 -28 4 C-18.76 4 -9.52 4 0 4 C0 2.68 0 1.36 0 0 Z " fill="#0350D0" transform="translate(554,505)"/>
<path d="M0 0 C0 3 0 3 -2 7 C-6.95 7 -11.9 7 -17 7 C-16.67 5.68 -16.34 4.36 -16 3 C-14.35 3.33 -12.7 3.66 -11 4 C-11 3.67 -11 3.34 -11 3 C-9.9275 3.061875 -8.855 3.12375 -7.75 3.1875 C-3.89133813 2.99456691 -2.71182212 2.60334924 0 0 Z " fill="#0654C9" transform="translate(673,471)"/>
<path d="M0 0 C0.66 0.33 1.32 0.66 2 1 C1.43853399 5.35136159 -0.26335865 8.90127474 -2.078125 12.83984375 C-3.08551207 15.20037363 -3.67154254 17.4544547 -4 20 C-4.66 20 -5.32 20 -6 20 C-7.47990746 15.30017267 -6.37202359 12.28635085 -4.6875 7.75 C-4.46126953 7.11320312 -4.23503906 6.47640625 -4.00195312 5.8203125 C-2.27291259 1.13645629 -2.27291259 1.13645629 0 0 Z " fill="#0E4DBC" transform="translate(635,492)"/>
<path d="M0 0 C12.44705648 -0.34628596 12.44705648 -0.34628596 17.1875 1 C24.50329064 2.96007976 32.49284 2.1457701 40 2 C40 2.33 40 2.66 40 3 C34.39 3 28.78 3 23 3 C23 4.65 23 6.3 23 8 C22.07767578 7.47599609 22.07767578 7.47599609 21.13671875 6.94140625 C20.32847656 6.48636719 19.52023437 6.03132813 18.6875 5.5625 C17.88699219 5.11003906 17.08648438 4.65757812 16.26171875 4.19140625 C12.59472632 2.25974357 9.39570289 1.77376377 5.3125 1.4375 C4.31863281 1.35371094 3.32476563 1.26992188 2.30078125 1.18359375 C1.16189453 1.09271484 1.16189453 1.09271484 0 1 C0 0.67 0 0.34 0 0 Z " fill="#10388E" transform="translate(853,477)"/>
<path d="M0 0 C0.66 0.66 1.32 1.32 2 2 C1.34 2.99 0.68 3.98 0 5 C-2.49190826 5.1958999 -4.71635932 5.20850337 -7.1953125 5.07421875 C-7.90275604 5.04777786 -8.61019958 5.02133698 -9.33908081 4.99409485 C-11.60190191 4.90621785 -13.86313773 4.79711517 -16.125 4.6875 C-17.65749501 4.62425263 -19.19004768 4.56238618 -20.72265625 4.50195312 C-24.48262767 4.35066006 -28.24131349 4.18032347 -32 4 C-32 3.01 -32 2.02 -32 1 C-31.01 1.495 -31.01 1.495 -30 2 C-28.30684623 2.09630516 -26.60995168 2.13075045 -24.9140625 2.1328125 C-23.39425781 2.13474609 -23.39425781 2.13474609 -21.84375 2.13671875 C-20.7815625 2.13285156 -19.719375 2.12898437 -18.625 2.125 C-17.57054687 2.12886719 -16.51609375 2.13273438 -15.4296875 2.13671875 C-14.41390625 2.13542969 -13.398125 2.13414062 -12.3515625 2.1328125 C-11.42166504 2.13168457 -10.49176758 2.13055664 -9.53369141 2.12939453 C-7.20021438 2.01022486 -5.24220669 1.61573552 -3 1 C-2.34 1 -1.68 1 -1 1 C-0.67 0.67 -0.34 0.34 0 0 Z " fill="#0C55D9" transform="translate(558,521)"/>
<path d="M0 0 C0.33 1.32 0.66 2.64 1 4 C1.66 4 2.32 4 3 4 C3.66 5.32 4.32 6.64 5 8 C4.01 8 3.02 8 2 8 C1.38125 7.2575 1.38125 7.2575 0.75 6.5 C-1.05421448 4.66039234 -1.05421448 4.66039234 -4.4375 4.6875 C-7.62416175 4.96703173 -9.35548366 5.30750954 -12 7 C-9.69656113 0.26687101 -6.85869086 -0.25881852 0 0 Z " fill="#0B4FC2" transform="translate(668,449)"/>
<path d="M0 0 C0.66 0.33 1.32 0.66 2 1 C2.3697479 6.54621849 2.3697479 6.54621849 0.625 8.6875 C0.08875 9.120625 -0.4475 9.55375 -1 10 C-1.99 11.485 -1.99 11.485 -3 13 C-3.66 13 -4.32 13 -5 13 C-5 13.66 -5 14.32 -5 15 C-5.66 14.67 -6.32 14.34 -7 14 C-5.53967505 8.68972746 -3.01679014 4.53669968 0 0 Z " fill="#044BB4" transform="translate(381,682)"/>
<path d="M0 0 C0.99 0.66 1.98 1.32 3 2 C2.67 2.99 2.34 3.98 2 5 C1.34 5 0.68 5 0 5 C-0.66 7.31 -1.32 9.62 -2 12 C-2.66 12 -3.32 12 -4 12 C-4 12.66 -4 13.32 -4 14 C-6.5 15.625 -6.5 15.625 -9 17 C-7.51481201 12.95698825 -5.57122002 9.38853744 -3.375 5.6875 C-2.74335938 4.61886719 -2.11171875 3.55023438 -1.4609375 2.44921875 C-0.97882813 1.64097656 -0.49671875 0.83273437 0 0 Z " fill="#044CB8" transform="translate(352,496)"/>
<path d="M0 0 C0.33 0.66 0.66 1.32 1 2 C3.24998444 2.54579815 3.24998444 2.54579815 5.875 2.75 C6.75929688 2.84796875 7.64359375 2.9459375 8.5546875 3.046875 C11.2616487 3.21459354 11.2616487 3.21459354 14 1 C14.33 2.65 14.66 4.3 15 6 C8.73 5.34 2.46 4.68 -4 4 C-4.33 4.66 -4.66 5.32 -5 6 C-6.32 5.34 -7.64 4.68 -9 4 C-8 3 -8 3 -4.5 2.5625 C-2.7675 2.2840625 -2.7675 2.2840625 -1 2 C-0.67 1.34 -0.34 0.68 0 0 Z " fill="#0947B0" transform="translate(857,473)"/>
<path d="M0 0 C0.66 0.33 1.32 0.66 2 1 C1.67 1.70125 1.34 2.4025 1 3.125 C-0.09044562 6.26003116 -0.15322643 8.70563182 0 12 C2.64 12.99 5.28 13.98 8 15 C7.67 16.32 7.34 17.64 7 19 C6.01 18.67 5.02 18.34 4 18 C4.33 17.01 4.66 16.02 5 15 C3.35 15.33 1.7 15.66 0 16 C-2.07384637 13.71823587 -2.98397191 12.55676517 -3.07421875 9.421875 C-2.94660156 8.54015625 -2.81898438 7.6584375 -2.6875 6.75 C-2.56761719 5.85796875 -2.44773437 4.9659375 -2.32421875 4.046875 C-2.21722656 3.37140625 -2.11023438 2.6959375 -2 2 C-1.34 2 -0.68 2 0 2 C0 1.34 0 0.68 0 0 Z " fill="#0452C2" transform="translate(452,499)"/>
<path d="M0 0 C0.12375 0.639375 0.2475 1.27875 0.375 1.9375 C0.58125 2.618125 0.7875 3.29875 1 4 C1.66 4.33 2.32 4.66 3 5 C3.33 5.99 3.66 6.98 4 8 C4.66 6.35 5.32 4.7 6 3 C7 7 7 7 7.3125 9.0625 C8.23223571 11.65448246 9.80030855 12.43892865 12 14 C12 14.66 12 15.32 12 16 C8 16 8 16 6.1484375 14.49609375 C2.35025714 10.08719276 0.077958 6.74910932 -1 1 C-0.67 0.67 -0.34 0.34 0 0 Z " fill="#0150C1" transform="translate(473,476)"/>
<path d="M0 0 C0.66 0.66 1.32 1.32 2 2 C1.67 2.66 1.34 3.32 1 4 C4.3 3.67 7.6 3.34 11 3 C11 2.34 11 1.68 11 1 C13.41466913 2.20733457 15.69115369 3.60254039 18 5 C17.67 5.99 17.34 6.98 17 8 C16.67 7.01 16.34 6.02 16 5 C15.44014404 5.03029297 14.88028809 5.06058594 14.3034668 5.09179688 C11.76485502 5.22869184 9.22617909 5.36435938 6.6875 5.5 C5.80642578 5.54769531 4.92535156 5.59539062 4.01757812 5.64453125 C2.74624023 5.71220703 2.74624023 5.71220703 1.44921875 5.78125 C0.27879028 5.8440918 0.27879028 5.8440918 -0.9152832 5.90820312 C-2.60882396 5.98277524 -4.30481821 6 -6 6 C-4.625 4.5 -4.625 4.5 -3 3 C-2.34 3 -1.68 3 -1 3 C-0.67 2.01 -0.34 1.02 0 0 Z " fill="#0B54C6" transform="translate(630,449)"/>
<path d="M0 0 C1.63368652 4.90105955 0.54088797 8.81004646 -1.5625 13.4375 C-2.036875 14.283125 -2.51125 15.12875 -3 16 C-3.33 16 -3.66 16 -4 16 C-4.66 12.7 -5.32 9.4 -6 6 C-5.01 5.67 -4.02 5.34 -3 5 C-1.30117552 2.50240018 -1.30117552 2.50240018 0 0 Z " fill="#0A4BC0" transform="translate(608,506)"/>
<path d="M0 0 C2.125 0.9375 2.125 0.9375 4 2 C4.33 1.34 4.66 0.68 5 0 C6.9375 0.8125 6.9375 0.8125 9 2 C9.33 2.99 9.66 3.98 10 5 C6.61981469 6.04005702 3.5219721 6.08004482 0 6 C-0.66 4.35 -1.32 2.7 -2 1 C-1.34 0.67 -0.68 0.34 0 0 Z " fill="#4CB2ED" transform="translate(334,506)"/>
<path d="M0 0 C2.75347128 2.514039 3.82748627 4.40778307 4.23828125 8.19921875 C4.43004528 14.62836029 3.27857631 18.46740247 0 24 C-0.625 22.1875 -0.625 22.1875 -1 20 C-0.01 18.515 -0.01 18.515 1 17 C1.28071552 13.93276853 1.28071552 13.93276853 1.1875 10.5625 C1.18105469 9.42941406 1.17460938 8.29632813 1.16796875 7.12890625 C1.03029419 4.56431739 0.74922106 2.43946376 0 0 Z " fill="#153C95" transform="translate(872,500)"/>
<path d="M0 0 C0.33 1.32 0.66 2.64 1 4 C1.66 3.67 2.32 3.34 3 3 C4.33333333 5 5.66666667 7 7 9 C9.05003955 10.19232613 9.05003955 10.19232613 11 11 C10.67 11.99 10.34 12.98 10 14 C5.30840284 10.61227103 0.9700218 7.21814817 -3 3 C-2.01 2.01 -1.02 1.02 0 0 Z " fill="#0450BE" transform="translate(436,423)"/>
<path d="M0 0 C0.66 0.33 1.32 0.66 2 1 C1.5401059 3.98931167 0.67258828 5.48615679 -1.0625 8.0625 C-3.27529737 10.83089933 -3.27529737 10.83089933 -3 14 C-3.66 14 -4.32 14 -5 14 C-5 14.66 -5 15.32 -5 16 C-5.66 16 -6.32 16 -7 16 C-5.76648984 9.72031193 -3.6516245 5.24049929 0 0 Z " fill="#054BAE" transform="translate(369,378)"/>
<path d="M0 0 C0 3.63320695 -0.73946263 4.25506176 -3 7 C-3.99 8.3303125 -3.99 8.3303125 -5 9.6875 C-7 12 -7 12 -10 13 C-10 9.25564806 -8.97038818 8.27705661 -6.6875 5.375 C-6.07261719 4.57835937 -5.45773437 3.78171875 -4.82421875 2.9609375 C-3 1 -3 1 0 0 Z " fill="#0448AC" transform="translate(286,662)"/>
<path d="M0 0 C0.33 1.32 0.66 2.64 1 4 C0.34 4 -0.32 4 -1 4 C-0.67 5.32 -0.34 6.64 0 8 C2.97 8.495 2.97 8.495 6 9 C2.64672361 11.23551759 2.09256343 11.17283528 -1.6875 10.625 C-2.49574219 10.51414062 -3.30398438 10.40328125 -4.13671875 10.2890625 C-4.75160156 10.19367187 -5.36648438 10.09828125 -6 10 C-4.28564986 6.44774296 -2.22257977 3.25978366 0 0 Z " fill="#59B6F4" transform="translate(331,732)"/>
<path d="M0 0 C0.66 1.32 1.32 2.64 2 4 C2.99 4 3.98 4 5 4 C5 5.98 5 7.96 5 10 C4.34 10 3.68 10 3 10 C2.67 10.66 2.34 11.32 2 12 C1.01 12.495 1.01 12.495 0 13 C0.04125 11.88625 0.0825 10.7725 0.125 9.625 C0.41121859 5.95633975 0.41121859 5.95633975 -2 4 C-1.34 2.68 -0.68 1.36 0 0 Z " fill="#0451C2" transform="translate(675,456)"/>
<path d="M0 0 C5.94 0 11.88 0 18 0 C17 7 17 7 15 10 C14.34 8.02 13.68 6.04 13 4 C13.66 4 14.32 4 15 4 C15 3.34 15 2.68 15 2 C10.05 1.67 5.1 1.34 0 1 C0 0.67 0 0.34 0 0 Z " fill="#CCE5FE" transform="translate(628,455)"/>
<path d="M0 0 C0.99 0.33 1.98 0.66 3 1 C2.67 2.32 2.34 3.64 2 5 C1.01 5 0.02 5 -1 5 C-1.061875 5.928125 -1.12375 6.85625 -1.1875 7.8125 C-2 11 -2 11 -4.5625 12.875 C-5.7690625 13.431875 -5.7690625 13.431875 -7 14 C-7.1875 11.6875 -7.1875 11.6875 -7 9 C-5.75 7.5625 -5.75 7.5625 -4 6 C-2.63988391 4.01811655 -1.30208796 2.02048131 0 0 Z " fill="#0451CC" transform="translate(430,444)"/>
<path d="M0 0 C1.9375 0.875 1.9375 0.875 4 2 C4.99 2.33 5.98 2.66 7 3 C7 3.66 7 4.32 7 5 C7.66 5.66 8.32 6.32 9 7 C8.01 7.99 7.02 8.98 6 10 C5.59007812 9.51789063 5.18015625 9.03578125 4.7578125 8.5390625 C3.94957031 7.59160156 3.94957031 7.59160156 3.125 6.625 C2.59132813 5.99851562 2.05765625 5.37203125 1.5078125 4.7265625 C0.38567993 3.44163349 -0.79371975 2.20628025 -2 1 C-1.34 0.67 -0.68 0.34 0 0 Z " fill="#0451C1" transform="translate(423,408)"/>
<path d="M0 0 C0.99 0 1.98 0 3 0 C3.14285714 8.57142857 3.14285714 8.57142857 2 12 C0.68 12.33 -0.64 12.66 -2 13 C-1.39174965 8.65535464 -0.73832608 4.32448133 0 0 Z " fill="#0749AE" transform="translate(401,307)"/>
<path d="M0 0 C0.99 0 1.98 0 3 0 C1.07289294 11.52164009 1.07289294 11.52164009 -1 17 C-1.66 16.67 -2.32 16.34 -3 16 C-3 13.69 -3 11.38 -3 9 C-2.34 9 -1.68 9 -1 9 C-0.67 6.03 -0.34 3.06 0 0 Z " fill="#0B45AB" transform="translate(796,504)"/>
<path d="M0 0 C-0.99 3.63 -1.98 7.26 -3 11 C-3.33 10.34 -3.66 9.68 -4 9 C-4.66 9 -5.32 9 -6 9 C-6.33 7.35 -6.66 5.7 -7 4 C-2.25 0 -2.25 0 0 0 Z " fill="#0355CC" transform="translate(615,488)"/>
<path d="M0 0 C0.7734375 0.7115625 0.7734375 0.7115625 1.5625 1.4375 C1.2325 2.4275 0.9025 3.4175 0.5625 4.4375 C-0.4275 3.7775 -1.4175 3.1175 -2.4375 2.4375 C-4.65334546 1.99046766 -6.88591961 1.62286758 -9.125 1.3125 C-10.89423828 1.06113281 -10.89423828 1.06113281 -12.69921875 0.8046875 C-14.05466797 0.62292969 -14.05466797 0.62292969 -15.4375 0.4375 C-11.11704781 -3.88295219 -4.98192119 -3.19353923 0 0 Z " fill="#024DBA" transform="translate(385.4375,421.5625)"/>
<path d="M0 0 C0.66 1.32 1.32 2.64 2 4 C-0.33333333 6.33333333 -2.66666667 8.66666667 -5 11 C-5.44041451 5.62694301 -5.44041451 5.62694301 -5 3 C-2.5 1 -2.5 1 0 0 Z " fill="#044EB9" transform="translate(271,480)"/>
<path d="M0 0 C0 0.99 0 1.98 0 3 C0.33 3.99 0.66 4.98 1 6 C-1.66666667 8 -4.33333333 10 -7 12 C-7 7.54648201 -5.44839588 4.67259383 -3 1 C-2.01 0.67 -1.02 0.34 0 0 Z " fill="#044CB7" transform="translate(320,618)"/>
<path d="M0 0 C0.66 0.66 1.32 1.32 2 2 C-0.56428003 6.17882671 -3.01930733 9.12505529 -7 12 C-7.33 10.35 -7.66 8.7 -8 7 C-7.236875 6.5875 -6.47375 6.175 -5.6875 5.75 C-3.0633358 4.04124191 -1.69678024 2.58982247 0 0 Z " fill="#044BB4" transform="translate(321,403)"/>
<path d="M0 0 C0.66 0 1.32 0 2 0 C2.77446576 2.78807674 3.21049043 4.43329501 2.1875 7.1875 C0.3472654 9.99627912 -0.76714055 10.92238018 -4 12 C-3.855625 11.443125 -3.71125 10.88625 -3.5625 10.3125 C-2.97230872 7.88615805 -2.476571 5.45093655 -2 3 C-1.34 3 -0.68 3 0 3 C0 2.01 0 1.02 0 0 Z " fill="#054BB9" transform="translate(292,618)"/>
<path d="M0 0 C0.66 0.33 1.32 0.66 2 1 C1.73781251 5.4571874 1.42288711 7.51522698 -1.5625 10.9375 C-2.366875 11.618125 -3.17125 12.29875 -4 13 C-4.66 12.34 -5.32 11.68 -6 11 C-4.02 7.37 -2.04 3.74 0 0 Z " fill="#044AAF" transform="translate(326,604)"/>
<path d="M0 0 C0.66 0.33 1.32 0.66 2 1 C2 1.99 2 2.98 2 4 C0.35451172 4.09087891 0.35451172 4.09087891 -1.32421875 4.18359375 C-2.77865654 4.26804498 -4.23308305 4.35269066 -5.6875 4.4375 C-6.40873047 4.47681641 -7.12996094 4.51613281 -7.87304688 4.55664062 C-11.66707282 4.78185678 -15.28651492 5.12839305 -19 6 C-18.67 4.68 -18.34 3.36 -18 2 C-17.34 2.33 -16.68 2.66 -16 3 C-13.66487041 2.67949202 -11.33177975 2.34403308 -9 2 C-7.1128125 2.0309375 -7.1128125 2.0309375 -5.1875 2.0625 C-1.90440876 2.36648123 -1.90440876 2.36648123 0 0 Z " fill="#084DC6" transform="translate(722,473)"/>
<path d="M0 0 C2.21991321 6.93722879 0.72535121 12.45117593 -1.9296875 18.9609375 C-3 21 -3 21 -5 22 C-4.53787109 20.75669922 -4.53787109 20.75669922 -4.06640625 19.48828125 C-2.91999579 15.73830125 -2.37277071 12.0670868 -1.9375 8.1875 C-1.12781049 1.12781049 -1.12781049 1.12781049 0 0 Z " fill="#62C4F9" transform="translate(278,462)"/>
<path d="M0 0 C0.66 0.33 1.32 0.66 2 1 C1.34 2.98 0.68 4.96 0 7 C-0.721875 6.79375 -1.44375 6.5875 -2.1875 6.375 C-5.44641585 5.94047789 -7.08304504 6.58319331 -10 8 C-6.91367389 4.7373124 -4.06516496 1.97764782 0 0 Z " fill="#5CBCF6" transform="translate(414,617)"/>
<path d="M0 0 C0.33 0.66 0.66 1.32 1 2 C-0.43359375 4.8203125 -0.43359375 4.8203125 -2.4375 8.125 C-3.09621094 9.22070312 -3.75492187 10.31640625 -4.43359375 11.4453125 C-4.95050781 12.28835938 -5.46742188 13.13140625 -6 14 C-6.33 13.34 -6.66 12.68 -7 12 C-6.06553465 9.96855359 -5.06775224 7.96466413 -4 6 C-4.99 6.33 -5.98 6.66 -7 7 C-7.33 6.01 -7.66 5.02 -8 4 C-6 3 -6 3 -2 3 C-1.34 2.01 -0.68 1.02 0 0 Z " fill="#5EC0F9" transform="translate(448,588)"/>
<path d="M0 0 C0 0.99 0 1.98 0 3 C-3.45083995 5.30055997 -4.87175728 5.27010256 -8.9375 5.25 C-10.49791016 5.25773438 -10.49791016 5.25773438 -12.08984375 5.265625 C-14.93098495 5.00629936 -16.58707634 4.46519702 -19 3 C-16.2780754 1.6390377 -14.8168043 2.29633752 -11.875 2.9375 C-10.96492187 3.13214844 -10.05484375 3.32679688 -9.1171875 3.52734375 C-8.41851563 3.68332031 -7.71984375 3.83929687 -7 4 C-7 3.34 -7 2.68 -7 2 C-6.21625 2.04125 -5.4325 2.0825 -4.625 2.125 C-1.83883881 2.28728734 -1.83883881 2.28728734 0 0 Z " fill="#0B45B3" transform="translate(729,522)"/>
<path d="M0 0 C3 1 3 1 3.984375 2.9609375 C4.23703125 3.75757813 4.4896875 4.55421875 4.75 5.375 C5.14445313 6.56222656 5.14445313 6.56222656 5.546875 7.7734375 C6 10 6 10 5 13 C4.773125 12.195625 4.54625 11.39125 4.3125 10.5625 C3.879375 9.716875 3.44625 8.87125 3 8 C0.45224694 7.10613836 0.45224694 7.10613836 -2 7 C-1.34 4.69 -0.68 2.38 0 0 Z " fill="#0E49BC" transform="translate(562,463)"/>
<path d="M0 0 C5.22477945 1.9351035 8.01636583 6.52454874 11 11 C11.125 13.6875 11.125 13.6875 11 16 C9.41642219 13.62463329 7.88406307 11.23494336 6.375 8.8125 C5.92898438 8.09707031 5.48296875 7.38164062 5.0234375 6.64453125 C4.68570312 6.10183594 4.34796875 5.55914062 4 5 C3.01 5.495 3.01 5.495 2 6 C2 5.01 2 4.02 2 3 C1.01 2.67 0.02 2.34 -1 2 C-0.67 1.34 -0.34 0.68 0 0 Z " fill="#60C0FB" transform="translate(441,434)"/>
<path d="M0 0 C1.65 0.33 3.3 0.66 5 1 C4.07347299 2.17539996 3.13336613 3.34010577 2.1875 4.5 C1.66542969 5.1496875 1.14335937 5.799375 0.60546875 6.46875 C-1 8 -1 8 -4 8 C-2.25 3.125 -2.25 3.125 0 2 C0 1.34 0 0.68 0 0 Z " fill="#084CB2" transform="translate(376,314)"/>
<path d="M0 0 C0.33 0.66 0.66 1.32 1 2 C1.99 1.67 2.98 1.34 4 1 C4.66 1.99 5.32 2.98 6 4 C4.35 6.31 2.7 8.62 1 11 C0.34 9.68 -0.32 8.36 -1 7 C-0.34 7 0.32 7 1 7 C0.67 4.69 0.34 2.38 0 0 Z " fill="#044DBB" transform="translate(393,626)"/>
<path d="M0 0 C0.33 0.66 0.66 1.32 1 2 C0.03523618 4.01723344 -0.96838392 6.01612292 -2 8 C-2.12375 8.680625 -2.2475 9.36125 -2.375 10.0625 C-3.3688775 13.14352025 -5.66846289 14.8478119 -8 17 C-7.41734728 12.57676318 -5.73233789 9.4844136 -3.4375 5.6875 C-2.79683594 4.61886719 -2.15617187 3.55023437 -1.49609375 2.44921875 C-1.00238281 1.64097656 -0.50867188 0.83273437 0 0 Z " fill="#5FC2FB" transform="translate(460,541)"/>
<path d="M0 0 C1.98 1.65 3.96 3.3 6 5 C5.67 6.65 5.34 8.3 5 10 C4.4225 9.319375 3.845 8.63875 3.25 7.9375 C2.5075 7.298125 1.765 6.65875 1 6 C-1.21858253 6.13641377 -1.21858253 6.13641377 -3 7 C-2.690625 6.401875 -2.38125 5.80375 -2.0625 5.1875 C-0.89790296 2.91043228 -0.89790296 2.91043228 0 0 Z " fill="#0456CF" transform="translate(469,497)"/>
<path d="M0 0 C0.99 1.485 0.99 1.485 2 3 C3.299375 3.7425 3.299375 3.7425 4.625 4.5 C5.40875 4.995 6.1925 5.49 7 6 C7 6.99 7 7.98 7 9 C5.68 9.33 4.36 9.66 3 10 C0.96564469 6.27034861 0 4.33094958 0 0 Z " fill="#0452CD" transform="translate(593,484)"/>
<path d="M0 0 C0.66 0 1.32 0 2 0 C2 0.66 2 1.32 2 2 C2.66 2 3.32 2 4 2 C2.63016497 5.16115776 2.0109362 5.9927092 -1 8 C-1.66 7.67 -2.32 7.34 -3 7 C-1.125 1.125 -1.125 1.125 0 0 Z " fill="#0550C0" transform="translate(402,619)"/>
<path d="M0 0 C1.2380014 3.57644848 0.74926071 6.33694766 0 10 C-0.66 10 -1.32 10 -2 10 C-2.12375 10.639375 -2.2475 11.27875 -2.375 11.9375 C-2.58125 12.618125 -2.7875 13.29875 -3 14 C-3.99 14.495 -3.99 14.495 -5 15 C-4.88637738 13.5199159 -4.75877092 12.04089926 -4.625 10.5625 C-4.55539062 9.73878906 -4.48578125 8.91507813 -4.4140625 8.06640625 C-4.20910156 7.04353516 -4.20910156 7.04353516 -4 6 C-3.34 5.67 -2.68 5.34 -2 5 C-1.27840576 3.35636866 -0.60648579 1.68949614 0 0 Z " fill="#0B49AF" transform="translate(806,539)"/>
<path d="M0 0 C3.50910665 1.16970222 3.78174698 1.85048928 5.5625 4.9375 C6.94197027 7.30537576 8.04971701 9.04971701 10 11 C7.03824877 10.38722388 5.61941217 9.74627478 3 8 C3 7.34 3 6.68 3 6 C2.01 5.67 1.02 5.34 0 5 C0 3.35 0 1.7 0 0 Z " fill="#054AB5" transform="translate(321,502)"/>
<path d="M0 0 C0.66 0 1.32 0 2 0 C1.00956295 4.83628305 0.04301154 9.47618873 -2 14 C-3.04005702 10.61981469 -3.08004482 7.5219721 -3 4 C-2.01 3.67 -1.02 3.34 0 3 C0 2.01 0 1.02 0 0 Z " fill="#054BB7" transform="translate(804,483)"/>
<path d="M0 0 C1 3 1 3 0.375 5.4375 C-1.26591347 8.49556601 -3.19399414 10.00625899 -6 12 C-5.57630928 10.3713449 -5.1355377 8.74712622 -4.6875 7.125 C-4.44386719 6.22007812 -4.20023437 5.31515625 -3.94921875 4.3828125 C-3 2 -3 2 0 0 Z " fill="#0449B6" transform="translate(302,451)"/>
<path d="M0 0 C0.99 0.33 1.98 0.66 3 1 C3.6875 3.0625 3.6875 3.0625 4 5 C3.01 5 2.02 5 1 5 C1 5.66 1 6.32 1 7 C-1.97 6.505 -1.97 6.505 -5 6 C-4.67 4.68 -4.34 3.36 -4 2 C-3.34 2.66 -2.68 3.32 -2 4 C-1.34 2.68 -0.68 1.36 0 0 Z " fill="#0A53CA" transform="translate(589,537)"/>
<path d="M0 0 C1.32 1.32 2.64 2.64 4 4 C2.37660195 5.70884005 0.70680947 7.37446717 -1 9 C-1.66 9 -2.32 9 -3 9 C-2.5020163 5.26512223 -2.12508244 3.18762365 0 0 Z " fill="#5CBEF5" transform="translate(257,534)"/>
<path d="M0 0 C0.33 0.66 0.66 1.32 1 2 C0.2578125 3.76953125 0.2578125 3.76953125 -0.875 5.8125 C-2.49461888 8.87860609 -3.56504816 11.52038527 -4 15 C-6 13 -6 13 -6.125 10.375 C-6.08375 9.59125 -6.0425 8.8075 -6 8 C-5.34 8 -4.68 8 -4 8 C-4 6.68 -4 5.36 -4 4 C-2 1.75 -2 1.75 0 0 Z " fill="#15429C" transform="translate(833,489)"/>
<path d="M0 0 C2 1.0625 2 1.0625 4 3 C4.25 6.6875 4.25 6.6875 4 10 C3.01 9.34 2.02 8.68 1 8 C0.01 7.67 -0.98 7.34 -2 7 C-2 3 -2 3 0 0 Z " fill="#084CB8" transform="translate(762,490)"/>
<path d="M0 0 C0.33 0.66 0.66 1.32 1 2 C0.60167969 2.59167969 0.20335937 3.18335938 -0.20703125 3.79296875 C-2.90025298 7.80986636 -5.57039197 11.81567505 -8 16 C-8.66 15.67 -9.32 15.34 -10 15 C-5.05 7.575 -5.05 7.575 0 0 Z " fill="#5EBAF8" transform="translate(352,700)"/>
<path d="M0 0 C5.61 0 11.22 0 17 0 C16.01 0.99 15.02 1.98 14 3 C11.3125 2.75 11.3125 2.75 8 2 C6.54361229 1.79794261 5.08510719 1.61064545 3.625 1.4375 C2.42875 1.293125 1.2325 1.14875 0 1 C0 0.67 0 0.34 0 0 Z " fill="#0446B0" transform="translate(776,570)"/>
<path d="M0 0 C0.66 0.66 1.32 1.32 2 2 C0.35 5.63 -1.3 9.26 -3 13 C-3.66 12.67 -4.32 12.34 -5 12 C-3.85814266 7.52040582 -2.56984833 3.85477249 0 0 Z " fill="#054FBF" transform="translate(437,459)"/>
<path d="M0 0 C1.485 0.99 1.485 0.99 3 2 C2.67 4.31 2.34 6.62 2 9 C1.34 9 0.68 9 0 9 C-0.33 9.66 -0.66 10.32 -1 11 C-1.125 3.375 -1.125 3.375 0 0 Z " fill="#0456CB" transform="translate(485,518)"/>
<path d="M0 0 C0.99 0.33 1.98 0.66 3 1 C0.525 5.455 0.525 5.455 -2 10 C-2.66 9.34 -3.32 8.68 -4 8 C-3.40138258 5.64828869 -2.73075648 3.3140622 -2 1 C-1.34 0.67 -0.68 0.34 0 0 Z " fill="#044FBD" transform="translate(412,441)"/>
<path d="M0 0 C0.66 0 1.32 0 2 0 C1.67 2.64 1.34 5.28 1 8 C-0.32 8.33 -1.64 8.66 -3 9 C-3.25532751 5.93606987 -3.21861333 4.36766788 -1.625 1.6875 C-0.820625 0.8521875 -0.820625 0.8521875 0 0 Z " fill="#044CB6" transform="translate(311,593)"/>
<path d="M0 0 C2.02045442 0.60183749 4.02111039 1.27306096 6 2 C6.33 2.66 6.66 3.32 7 4 C6.67 4.66 6.34 5.32 6 6 C3.69 5.34 1.38 4.68 -1 4 C-1.33 4.66 -1.66 5.32 -2 6 C-2.66 5.34 -3.32 4.68 -4 4 C-2.68 2.68 -1.36 1.36 0 0 Z " fill="#0851C6" transform="translate(692,538)"/>
<path d="M0 0 C0 3 0 3 -2 7 C-4.97 6.01 -7.94 5.02 -11 4 C-11 3.67 -11 3.34 -11 3 C-9.9275 3.061875 -8.855 3.12375 -7.75 3.1875 C-3.89133813 2.99456691 -2.71182212 2.60334924 0 0 Z " fill="#0D4FC0" transform="translate(673,471)"/>
<path d="M0 0 C1.32 0.33 2.64 0.66 4 1 C3.8125 2.8125 3.8125 2.8125 3 5 C0.5625 6.8125 0.5625 6.8125 -2 8 C-2.66 7.67 -3.32 7.34 -4 7 C-2.68 4.69 -1.36 2.38 0 0 Z " fill="#044FB9" transform="translate(370,466)"/>
<path d="M0 0 C5.74418605 4.23255814 5.74418605 4.23255814 7 8 C7.125 10.75 7.125 10.75 7 13 C6.67 12.34 6.34 11.68 6 11 C5.34 11 4.68 11 4 11 C3.67 9.02 3.34 7.04 3 5 C2.01 4.67 1.02 4.34 0 4 C0 2.68 0 1.36 0 0 Z " fill="#64C2FA" transform="translate(426,415)"/>
<path d="M0 0 C0.33 0.99 0.66 1.98 1 3 C-2.465 4.485 -2.465 4.485 -6 6 C-6.33 5.01 -6.66 4.02 -7 3 C-6.67 2.34 -6.34 1.68 -6 1 C-2.9375 0.375 -2.9375 0.375 0 0 Z " fill="#054BB7" transform="translate(308,416)"/>
<path d="M0 0 C1.32 0.33 2.64 0.66 4 1 C2.35 3.64 0.7 6.28 -1 9 C-1.66 8.67 -2.32 8.34 -3 8 C-1.125 2.25 -1.125 2.25 0 0 Z " fill="#074FBE" transform="translate(427,592)"/>
<path d="M0 0 C2.125 0.375 2.125 0.375 4 1 C2.11192137 3.69725519 0.80175356 5.13216429 -2 7 C-2.66 7 -3.32 7 -4 7 C-2.92598892 4.08482708 -2.22189824 2.22189824 0 0 Z " fill="#0348AC" transform="translate(254,543)"/>
<path d="M0 0 C0.99 0.33 1.98 0.66 3 1 C1.35 4.3 -0.3 7.6 -2 11 C-2.66 9.68 -3.32 8.36 -4 7 C-3.06434658 4.35435928 -1.54985485 2.37036624 0 0 Z " fill="#0650C2" transform="translate(465,526)"/>
<path d="M0 0 C0.33 0 0.66 0 1 0 C1.08090971 1.62418745 1.13914995 3.24951745 1.1875 4.875 C1.22230469 5.77992188 1.25710938 6.68484375 1.29296875 7.6171875 C1.19628906 8.40351562 1.09960938 9.18984375 1 10 C0.01 10.66 -0.98 11.32 -2 12 C-2.66 11.01 -3.32 10.02 -4 9 C-3.2884375 7.88625 -3.2884375 7.88625 -2.5625 6.75 C-1.22130673 4.38949985 -0.487688 2.63351523 0 0 Z " fill="#D0EAF5" transform="translate(701,509)"/>
<path d="M0 0 C3.96 0.33 7.92 0.66 12 1 C12 1.66 12 2.32 12 3 C10.37509046 3.02698189 8.75005367 3.04638757 7.125 3.0625 C5.76761719 3.07990234 5.76761719 3.07990234 4.3828125 3.09765625 C2 3 2 3 0 2 C0 1.34 0 0.68 0 0 Z " fill="#1053BF" transform="translate(356,421)"/>
<path d="M0 0 C0.33 0.99 0.66 1.98 1 3 C1.66 3 2.32 3 3 3 C2.67 5.97 2.34 8.94 2 12 C-0.18975773 8.71536341 -0.99806563 5.79303725 -2 2 C-1.34 1.34 -0.68 0.68 0 0 Z " fill="#054DB6" transform="translate(317,546)"/>
<path d="M0 0 C0.33 0.66 0.66 1.32 1 2 C-1.80804268 4.96404505 -4.18315774 7.44499019 -8 9 C-6.68 6.69 -5.36 4.38 -4 2 C-3.01 2.33 -2.02 2.66 -1 3 C-0.67 2.01 -0.34 1.02 0 0 Z " fill="#66C6F6" transform="translate(277,521)"/>
<path d="M0 0 C1.32 0.33 2.64 0.66 4 1 C2.60667426 4.36720387 1.0210714 5.9859524 -2 8 C-1.125 2.25 -1.125 2.25 0 0 Z " fill="#0449B5" transform="translate(818,507)"/>
<path d="M0 0 C0.8971875 0.7734375 0.8971875 0.7734375 1.8125 1.5625 C2.534375 2.036875 3.25625 2.51125 4 3 C4.99 2.67 5.98 2.34 7 2 C7.66 2.66 8.32 3.32 9 4 C7.02 5.32 5.04 6.64 3 8 C0 2.25 0 2.25 0 0 Z " fill="#4DB3EE" transform="translate(320,492)"/>
<path d="M0 0 C0.99 0 1.98 0 3 0 C4.32 2.97 5.64 5.94 7 9 C6.01 9.495 6.01 9.495 5 10 C5 9.01 5 8.02 5 7 C4.01 6.67 3.02 6.34 2 6 C0.8125 2.9375 0.8125 2.9375 0 0 Z " fill="#094EB9" transform="translate(312,485)"/>
<path d="M0 0 C1.1875 1.625 1.1875 1.625 2 4 C0.625 7.25 0.625 7.25 -1 10 C-1.99 9.67 -2.98 9.34 -4 9 C-3.67 7.68 -3.34 6.36 -3 5 C-2.34 5 -1.68 5 -1 5 C-1.33 3.68 -1.66 2.36 -2 1 C-1.34 0.67 -0.68 0.34 0 0 Z " fill="#0753C4" transform="translate(418,429)"/>
<path d="M0 0 C1 2 1 2 0.4375 4.4375 C-1.44098755 7.78610824 -3.51621754 8.56104638 -7 10 C-5.33248852 6.05860922 -2.77289351 3.2107188 0 0 Z " fill="#55B8F3" transform="translate(267,660)"/>
<path d="M0 0 C1.125 3.75 1.125 3.75 0 6 C-0.66 6 -1.32 6 -2 6 C-2 6.66 -2 7.32 -2 8 C-3.65 8.66 -5.3 9.32 -7 10 C-6.02223933 8.51990357 -5.0427506 7.04094856 -4.0625 5.5625 C-3.51722656 4.73878906 -2.97195313 3.91507813 -2.41015625 3.06640625 C-1 1 -1 1 0 0 Z " fill="#0249B6" transform="translate(433,617)"/>
<path d="M0 0 C0.33 0.99 0.66 1.98 1 3 C0.01 3.66 -0.98 4.32 -2 5 C-1.34 3.35 -0.68 1.7 0 0 Z M-5 5 C-4.01 5 -3.02 5 -2 5 C-2.33 6.98 -2.66 8.96 -3 11 C-3.99 11.33 -4.98 11.66 -6 12 C-5.67 9.69 -5.34 7.38 -5 5 Z " fill="#0653C9" transform="translate(446,597)"/>
<path d="M0 0 C0.66 0 1.32 0 2 0 C3.2380014 3.57644848 2.74926071 6.33694766 2 10 C0.68 9.01 -0.64 8.02 -2 7 C-1.34 4.69 -0.68 2.38 0 0 Z " fill="#0A4BB5" transform="translate(790,501)"/>
<path d="M0 0 C1.32 0 2.64 0 4 0 C4.66 1.65 5.32 3.3 6 5 C5.01 5.99 4.02 6.98 3 8 C0 2.25 0 2.25 0 0 Z " fill="#4DB4EB" transform="translate(314,480)"/>
<path d="M0 0 C0.66 0.33 1.32 0.66 2 1 C-0.10148204 4.98175544 -2.36905358 7.35039045 -6 10 C-6.33 9.34 -6.66 8.68 -7 8 C-4.69 5.36 -2.38 2.72 0 0 Z " fill="#66C2F9" transform="translate(303,422)"/>
<path d="M0 0 C0.99 0.33 1.98 0.66 3 1 C2.34 3.31 1.68 5.62 1 8 C-0.32 7.01 -1.64 6.02 -3 5 C-2.01 3.35 -1.02 1.7 0 0 Z " fill="#094BB5" transform="translate(781,539)"/>
<path d="M0 0 C1.60725635 3.21451269 1.05748185 6.43612536 1 10 C0.01 10.495 0.01 10.495 -1 11 C-3.125 4.375 -3.125 4.375 -2 1 C-1.34 0.67 -0.68 0.34 0 0 Z " fill="#054CB9" transform="translate(315,536)"/>
<path d="M0 0 C0.66 0.99 1.32 1.98 2 3 C1.125 6.1875 1.125 6.1875 0 9 C-1.32 8.67 -2.64 8.34 -4 8 C-3.67 7.01 -3.34 6.02 -3 5 C-2.34 5 -1.68 5 -1 5 C-0.67 3.35 -0.34 1.7 0 0 Z " fill="#0351C5" transform="translate(473,508)"/>
<path d="M0 0 C0.66 0.33 1.32 0.66 2 1 C2 1.66 2 2.32 2 3 C2.66 3.33 3.32 3.66 4 4 C3.67 5.32 3.34 6.64 3 8 C2.01 7.67 1.02 7.34 0 7 C-1.125 2.25 -1.125 2.25 0 0 Z " fill="#4DAEF0" transform="translate(410,465)"/>
<path d="M0 0 C0.99 0 1.98 0 3 0 C3.05422947 1.4370809 3.09289723 2.87475462 3.125 4.3125 C3.14820313 5.11300781 3.17140625 5.91351563 3.1953125 6.73828125 C3 9 3 9 1 12 C0.01751476 7.9472484 -0.08159574 4.16138263 0 0 Z " fill="#49ABEC" transform="translate(319,446)"/>
<path d="M0 0 C0.66 0.99 1.32 1.98 2 3 C0.02 5.97 0.02 5.97 -2 9 C-2.66 8.67 -3.32 8.34 -4 8 C-3.34 6.02 -2.68 4.04 -2 2 C-1.34 2 -0.68 2 0 2 C0 1.34 0 0.68 0 0 Z " fill="#054AAE" transform="translate(356,689)"/>
<path d="M0 0 C0.33 1.32 0.66 2.64 1 4 C-1.475 5.485 -1.475 5.485 -4 7 C-4.66 6.34 -5.32 5.68 -6 5 C-2.25 1.125 -2.25 1.125 0 0 Z " fill="#064DB2" transform="translate(302,641)"/>
<path d="M0 0 C0.33 0.99 0.66 1.98 1 3 C0.01 3.495 0.01 3.495 -1 4 C-0.67 5.65 -0.34 7.3 0 9 C-1.9375 8.625 -1.9375 8.625 -4 8 C-4.33 7.34 -4.66 6.68 -5 6 C-3.35 4.02 -1.7 2.04 0 0 Z " fill="#044EC5" transform="translate(414,636)"/>
<path d="M0 0 C0.66 0.33 1.32 0.66 2 1 C1.05066101 4.35433109 0.10251165 7.69246505 -1 11 C-1.66 11 -2.32 11 -3 11 C-2.53199289 6.94393835 -2.12046792 3.53411321 0 0 Z " fill="#0652C5" transform="translate(471,548)"/>
<path d="M0 0 C0.99 0.33 1.98 0.66 3 1 C3 3.31 3 5.62 3 8 C1.68 8 0.36 8 -1 8 C-0.67 5.36 -0.34 2.72 0 0 Z " fill="#0A53CD" transform="translate(571,488)"/>
<path d="M0 0 C0.99 0 1.98 0 3 0 C3.33 0.99 3.66 1.98 4 3 C2.5625 5.1875 2.5625 5.1875 1 7 C0.34 6.34 -0.32 5.68 -1 5 C-0.625 2.375 -0.625 2.375 0 0 Z " fill="#0552C3" transform="translate(402,455)"/>
<path d="M0 0 C1.65 0 3.3 0 5 0 C4.04578192 1.14926266 3.08647955 2.29430541 2.125 3.4375 C1.59132813 4.07558594 1.05765625 4.71367187 0.5078125 5.37109375 C-1 7 -1 7 -3 8 C-2.37240135 5.07120629 -1.41377341 2.63904371 0 0 Z " fill="#064FB6" transform="translate(351,408)"/>
<path d="M0 0 C0 4.38968456 -2.12805101 5.76905739 -5 9 C-5 6.29745539 -4.96569331 4.49470772 -4 2 C-1.9375 0.75 -1.9375 0.75 0 0 Z " fill="#59B8F6" transform="translate(272,675)"/>
<path d="M0 0 C1.32 0 2.64 0 4 0 C3.1875 2.4375 3.1875 2.4375 2 5 C1.01 5.33 0.02 5.66 -1 6 C-0.67 4.02 -0.34 2.04 0 0 Z " fill="#034DB3" transform="translate(386,674)"/>
<path d="M0 0 C0.99 0.33 1.98 0.66 3 1 C2.42655063 3.86724686 2.1385485 4.8614515 0 7 C-0.99 6.67 -1.98 6.34 -3 6 C-2.01 4.02 -1.02 2.04 0 0 Z " fill="#034DB8" transform="translate(371,663)"/>
<path d="M0 0 C0.99 0 1.98 0 3 0 C1.90931332 3.77545388 1.0916909 6.47043472 -2 9 C-2.66 7.35 -3.32 5.7 -4 4 C-2.68 4.33 -1.36 4.66 0 5 C0 3.35 0 1.7 0 0 Z " fill="#034BB6" transform="translate(420,604)"/>
<path d="M0 0 C0.66 0.33 1.32 0.66 2 1 C0.68 3.31 -0.64 5.62 -2 8 C-2.99 7.01 -3.98 6.02 -5 5 C-3.35 3.35 -1.7 1.7 0 0 Z " fill="#044FBF" transform="translate(440,573)"/>
<path d="M0 0 C4.62 0 9.24 0 14 0 C13.67 0.99 13.34 1.98 13 3 C12.43796875 2.84660156 11.8759375 2.69320313 11.296875 2.53515625 C8.94161122 1.98639581 6.65451896 1.68502401 4.25 1.4375 C3.45078125 1.35371094 2.6515625 1.26992188 1.828125 1.18359375 C1.22484375 1.12300781 0.6215625 1.06242187 0 1 C0 0.67 0 0.34 0 0 Z " fill="#ECFEFB" transform="translate(630,456)"/>
<path d="M0 0 C0.66 0 1.32 0 2 0 C2.33 0.99 2.66 1.98 3 3 C1.0625 6.1875 1.0625 6.1875 -1 9 C-1.66 8.67 -2.32 8.34 -3 8 C-2.690625 7.236875 -2.38125 6.47375 -2.0625 5.6875 C-1.32106407 3.81210323 -0.63771783 1.91315348 0 0 Z " fill="#4FB6EA" transform="translate(304,421)"/>
<path d="M0 0 C0.625 1.8125 0.625 1.8125 1 4 C-1 7 -1 7 -4 9 C-4.8125 7.3125 -4.8125 7.3125 -5 5 C-2.5625 2.25 -2.5625 2.25 0 0 Z " fill="#67C9F3" transform="translate(388,340)"/>
<path d="M0 0 C1 4 1 4 -0.4375 6.75 C-1.2109375 7.86375 -1.2109375 7.86375 -2 9 C-2.99 8.67 -3.98 8.34 -5 8 C-3.35 5.36 -1.7 2.72 0 0 Z " fill="#054CAF" transform="translate(363,332)"/>
<path d="M0 0 C2.4375 0.375 2.4375 0.375 5 1 C5.33 1.66 5.66 2.32 6 3 C5.01 4.485 5.01 4.485 4 6 C2.68 5.34 1.36 4.68 0 4 C0 2.68 0 1.36 0 0 Z M2 1 C1.67 1.66 1.34 2.32 1 3 C1.66 3 2.32 3 3 3 C2.67 2.34 2.34 1.68 2 1 Z " fill="#0250C4" transform="translate(688,480)"/>
<path d="M0 0 C0.99 0.495 0.99 0.495 2 1 C2 1.99 2 2.98 2 4 C2.66 3.67 3.32 3.34 4 3 C4.66 4.65 5.32 6.3 6 8 C3.13275314 7.42655063 2.1385485 7.1385485 0 5 C-0.125 2.375 -0.125 2.375 0 0 Z " fill="#4AB4EC" transform="translate(403,465)"/>
<path d="M0 0 C0.66 0 1.32 0 2 0 C2.6875 1.8125 2.6875 1.8125 3 4 C1.625 5.625 1.625 5.625 0 7 C-0.33 7.66 -0.66 8.32 -1 9 C-1.66 8.67 -2.32 8.34 -3 8 C-2.67 6.68 -2.34 5.36 -2 4 C-1.34 4 -0.68 4 0 4 C0 2.68 0 1.36 0 0 Z " fill="#4FB4EE" transform="translate(326,465)"/>
<path d="M0 0 C0.66 0.33 1.32 0.66 2 1 C2 1.66 2 2.32 2 3 C2.66 3 3.32 3 4 3 C3.67 3.66 3.34 4.32 3 5 C2.01 4.67 1.02 4.34 0 4 C-0.66 5.32 -1.32 6.64 -2 8 C-2.33 7.01 -2.66 6.02 -3 5 C-1.5625 2.3125 -1.5625 2.3125 0 0 Z " fill="#054FC1" transform="translate(376,456)"/>
<path d="M0 0 C0.66 0.66 1.32 1.32 2 2 C1.625 5.625 1.625 5.625 1 9 C-1.7839183 7.60804085 -1.97898997 5.84424221 -3 3 C-2.34 3 -1.68 3 -1 3 C-0.67 2.01 -0.34 1.02 0 0 Z " fill="#044FB4" transform="translate(317,452)"/>
<path d="M0 0 C0.99 0 1.98 0 3 0 C3 2.64 3 5.28 3 8 C2.01 8 1.02 8 0 8 C0 5.36 0 2.72 0 0 Z " fill="#0951BE" transform="translate(401,307)"/>
<path d="M0 0 C0 0.66 0 1.32 0 2 C-2.3125 3.6875 -2.3125 3.6875 -5 5 C-5.99 4.67 -6.98 4.34 -8 4 C-3.375 0 -3.375 0 0 0 Z " fill="#054FB9" transform="translate(422,631)"/>
<path d="M0 0 C0.99 0.33 1.98 0.66 3 1 C1.68 3.31 0.36 5.62 -1 8 C-1.99 7.67 -2.98 7.34 -4 7 C-3.67 6.34 -3.34 5.68 -3 5 C-2.34 5 -1.68 5 -1 5 C-0.67 3.35 -0.34 1.7 0 0 Z " fill="#054EBC" transform="translate(434,581)"/>
<path d="M0 0 C0.33 0.66 0.66 1.32 1 2 C0.67 2.66 0.34 3.32 0 4 C0.66 4.33 1.32 4.66 2 5 C1.01 5.33 0.02 5.66 -1 6 C-2.20882096 8.00016466 -2.20882096 8.00016466 -3 10 C-3.33 9.34 -3.66 8.68 -4 8 C-3.22265625 6.0546875 -3.22265625 6.0546875 -2.0625 3.875 C-1.49208984 2.78832031 -1.49208984 2.78832031 -0.91015625 1.6796875 C-0.60980469 1.12539063 -0.30945313 0.57109375 0 0 Z " fill="#0554CF" transform="translate(461,570)"/>
<path d="M0 0 C2.50298434 2.93828597 3.46930939 5.17902761 4 9 C3.01 9.33 2.02 9.66 1 10 C0 3.375 0 3.375 0 0 Z " fill="#4DB3EB" transform="translate(329,486)"/>
<path d="M0 0 C0.66 0.33 1.32 0.66 2 1 C0.92598892 3.91517292 0.22189824 5.77810176 -2 8 C-2.33 6.02 -2.66 4.04 -3 2 C-2.01 1.34 -1.02 0.68 0 0 Z " fill="#0A44AE" transform="translate(688,489)"/>
<path d="M0 0 C0.66 0.33 1.32 0.66 2 1 C1.625 2.9375 1.625 2.9375 1 5 C0.01 5.495 0.01 5.495 -1 6 C-1.042721 4.33388095 -1.04063832 2.66617115 -1 1 C-0.67 0.67 -0.34 0.34 0 0 Z M-2 6 C-1.67 6.99 -1.34 7.98 -1 9 C-1.99 9.66 -2.98 10.32 -4 11 C-3.34 9.35 -2.68 7.7 -2 6 Z " fill="#0650BE" transform="translate(369,378)"/>
<path d="M0 0 C0.66 0.33 1.32 0.66 2 1 C1.67 3.64 1.34 6.28 1 9 C0.01 8.67 -0.98 8.34 -2 8 C-1.34 5.36 -0.68 2.72 0 0 Z " fill="#0A4DB0" transform="translate(398,320)"/>
<path d="M0 0 C0.99 0.66 1.98 1.32 3 2 C-1.75 6.875 -1.75 6.875 -4 8 C-3.40072174 4.64404172 -2.15377564 2.62198774 0 0 Z " fill="#054ABE" transform="translate(386,304)"/>
<path d="M0 0 C0.66 1.32 1.32 2.64 2 4 C0 6 0 6 -3 7 C-2.25 2.25 -2.25 2.25 0 0 Z " fill="#45AEE6" transform="translate(305,629)"/>
<path d="M0 0 C1.125 1.625 1.125 1.625 2 4 C1.125 7.25 1.125 7.25 0 10 C-0.66 10 -1.32 10 -2 10 C-2 8.02 -2 6.04 -2 4 C-1.34 4 -0.68 4 0 4 C0 2.68 0 1.36 0 0 Z " fill="#0551C3" transform="translate(458,480)"/>
<path d="M0 0 C-1.6454378 1.68762851 -3.31288577 3.3540349 -5 5 C-5.33 5 -5.66 5 -6 5 C-6 3.35 -6 1.7 -6 0 C-2.25 -1.125 -2.25 -1.125 0 0 Z " fill="#0944B1" transform="translate(702,480)"/>
<path d="M0 0 C0.99 0.33 1.98 0.66 3 1 C3.33 2.98 3.66 4.96 4 7 C3.01 7.33 2.02 7.66 1 8 C1.020625 7.05125 1.04125 6.1025 1.0625 5.125 C1.22551826 2.09333717 1.22551826 2.09333717 0 0 Z " fill="#054BBF" transform="translate(404,293)"/>
<path d="M0 0 C0 3 0 3 -2.5 5.6875 C-3.325 6.450625 -4.15 7.21375 -5 8 C-5 6.68 -5 5.36 -5 4 C-4.34 4 -3.68 4 -3 4 C-3 3.34 -3 2.68 -3 2 C-2.01 1.34 -1.02 0.68 0 0 Z " fill="#5DBAF6" transform="translate(301,638)"/>
<path d="M0 0 C0.66 0 1.32 0 2 0 C2.125 3.375 2.125 3.375 2 7 C1.34 7.66 0.68 8.32 0 9 C-0.98150241 6.05549278 -1.1613058 4.06481021 -1 1 C-0.67 0.67 -0.34 0.34 0 0 Z " fill="#0853CA" transform="translate(451,548)"/>
<path d="M0 0 C1.32 0.99 2.64 1.98 4 3 C3.67 3.99 3.34 4.98 3 6 C2.01 6 1.02 6 0 6 C0 5.01 0 4.02 0 3 C-0.66 2.34 -1.32 1.68 -2 1 C-1.34 0.67 -0.68 0.34 0 0 Z " fill="#044BB2" transform="translate(834,536)"/>
<path d="M0 0 C0.99 0.33 1.98 0.66 3 1 C3 2.98 3 4.96 3 7 C2.34 7 1.68 7 1 7 C1 6.34 1 5.68 1 5 C0.34 5 -0.32 5 -1 5 C-0.67 3.35 -0.34 1.7 0 0 Z " fill="#0C4FC1" transform="translate(683,523)"/>
<path d="M0 0 C0.66 0.33 1.32 0.66 2 1 C0.375 6.75 0.375 6.75 -3 9 C-2.01 6.03 -1.02 3.06 0 0 Z " fill="#0550C9" transform="translate(628,513)"/>
<path d="M0 0 C1.65 0.33 3.3 0.66 5 1 C4.67 1.99 4.34 2.98 4 4 C1.9375 4.6875 1.9375 4.6875 0 5 C-0.33 4.01 -0.66 3.02 -1 2 C-0.67 1.34 -0.34 0.68 0 0 Z " fill="#5FC7FA" transform="translate(363,339)"/>
<path d="M0 0 C0.66 0.33 1.32 0.66 2 1 C0.02 3.97 0.02 3.97 -2 7 C-2.99 6.34 -3.98 5.68 -5 5 C-3.35 3.35 -1.7 1.7 0 0 Z " fill="#83DFFD" transform="translate(399,298)"/>
</svg>
